<svg width="31" height="32" viewBox="0 0 31 32" fill="none" xmlns="http://www.w3.org/2000/svg">
<path d="M18.36 25.3333C23.1869 25.3333 25.601 25.3333 27.0998 23.7707C28.6 22.2093 28.6 19.6947 28.6 14.6667C28.6 9.63867 28.6 7.124 27.0998 5.56267C25.601 4 23.1869 4 18.36 4H13.24C8.41312 4 5.99904 4 4.50016 5.56267C3 7.124 3 9.63867 3 14.6667C3 19.6947 3 22.2093 4.50016 23.7707C5.336 24.6427 6.456 25.028 8.12 25.1973" stroke="#F2B66D" stroke-width="2.6" stroke-linecap="round" stroke-linejoin="round"/>
<path d="M18.3602 25.3335C16.7781 25.3335 15.0348 26.0002 13.4438 26.8602C10.8863 28.2428 9.60759 28.9348 8.97783 28.4935C8.34807 28.0535 8.46711 26.6868 8.70647 23.9548L8.76023 23.3335" stroke="#F2B66D" stroke-width="2.6" stroke-linecap="round"/>
</svg>
