<svg width="38" height="38" viewBox="0 0 38 38" fill="none" xmlns="http://www.w3.org/2000/svg">
<path d="M10 23.2605C10 21.6613 10 20.8633 10.3515 20.1809C10.7014 19.5 11.3522 19.0345 12.6521 18.1067L19.2435 13.3979C20.1302 12.7645 20.5767 12.4463 21.0833 12.4463C21.59 12.4463 22.0349 12.763 22.9232 13.3979L29.5146 18.1051C30.8145 19.0345 31.4652 19.4985 31.8152 20.1809C32.1667 20.8617 32.1667 21.6613 32.1667 23.2589V31.0837C32.1667 32.5768 32.1667 33.3225 31.7028 33.7865C31.2388 34.2504 30.4931 34.2504 29 34.2504H13.1667C11.6736 34.2504 10.9278 34.2504 10.4639 33.7865C10 33.3225 10 32.5768 10 31.0837V23.2605Z" fill="white"/>
<path d="M7 20.6125C7 21.0337 7 21.2459 7.133 21.3108C7.266 21.3757 7.43383 21.2474 7.76633 20.9862L19.3057 12.0119C20.2398 11.2851 20.7069 10.9225 21.25 10.9225C21.7931 10.9225 22.2602 11.2867 23.1943 12.0119L34.7337 20.9862C35.0662 21.2459 35.234 21.3757 35.367 21.3108C35.5 21.2459 35.5 21.0337 35.5 20.6125V19.9649C35.5 19.2049 35.5 18.8249 35.3385 18.4956C35.1786 18.1663 34.8778 17.9319 34.2777 17.4664L23.1943 8.84519C22.2602 8.11844 21.7931 7.75586 21.25 7.75586C20.7069 7.75586 20.2398 8.12003 19.3057 8.84519L8.22233 17.4664C7.62225 17.9319 7.32142 18.1663 7.1615 18.4956C7 18.8249 7 19.2049 7 19.9649V20.6125ZM22.0417 24.7498H20.4583C19.6185 24.7498 18.813 25.0834 18.2192 25.6773C17.6253 26.2711 17.2917 27.0766 17.2917 27.9164V34.0123C17.2917 34.1437 17.3977 34.2498 17.5292 34.2498H24.9708C25.0338 34.2498 25.0942 34.2248 25.1388 34.1802C25.1833 34.1357 25.2083 34.0753 25.2083 34.0123V27.9164C25.2083 27.0766 24.8747 26.2711 24.2808 25.6773C23.687 25.0834 22.8815 24.7498 22.0417 24.7498Z" fill="#F2B66D"/>
<path d="M22.375 8.9165H20.7917C20.3544 8.9165 20 9.27095 20 9.70817V14.4582C20 14.8954 20.3544 15.2498 20.7917 15.2498H22.375C22.8122 15.2498 23.1667 14.8954 23.1667 14.4582V9.70817C23.1667 9.27095 22.8122 8.9165 22.375 8.9165Z" fill="#F2B66D"/>
</svg>
