<svg width="1500" height="1119" viewBox="0 0 1500 1119" fill="none" xmlns="http://www.w3.org/2000/svg">
<path d="M1500 982.86H0V983.61H1500V982.86Z" fill="#EBEBEB"/>
<path d="M1349.7 1031.13H1271.01V1031.88H1349.7V1031.13Z" fill="#EBEBEB"/>
<path d="M1070.28 1021.38H967.592V1022.13H1070.28V1021.38Z" fill="#EBEBEB"/>
<path d="M1247.31 1003.29H1167.99V1004.04H1247.31V1003.29Z" fill="#EBEBEB"/>
<path d="M332.67 1008.33H203.1V1009.08H332.67V1008.33Z" fill="#EBEBEB"/>
<path d="M176.371 1008.33H157.381V1009.08H176.371V1008.33Z" fill="#EBEBEB"/>
<path d="M563.01 1020.99H394.41V1021.74H563.01V1020.99Z" fill="#EBEBEB"/>
<path d="M710.999 849.059H131.729C127.191 849.051 122.842 847.243 119.636 844.031C116.43 840.82 114.629 836.467 114.629 831.929V17.6392C114.668 13.1273 116.486 8.81311 119.688 5.63383C122.89 2.45455 127.217 0.666909 131.729 0.65918H710.999C715.542 0.65918 719.899 2.46394 723.112 5.67644C726.324 8.88894 728.129 13.246 728.129 17.7892V831.929C728.129 836.472 726.324 840.829 723.112 844.042C719.899 847.254 715.542 849.059 710.999 849.059ZM131.729 1.25918C127.39 1.26713 123.231 2.99637 120.166 6.06736C117.101 9.13834 115.379 13.3001 115.379 17.6392V831.929C115.379 836.268 117.101 840.43 120.166 843.501C123.231 846.572 127.39 848.301 131.729 848.309H710.999C715.341 848.301 719.502 846.573 722.573 843.503C725.643 840.433 727.371 836.271 727.379 831.929V17.6392C727.371 13.2974 725.643 9.13566 722.573 6.06553C719.502 2.9954 715.341 1.26711 710.999 1.25918H131.729Z" fill="#EBEBEB"/>
<path d="M1359.93 849.059H780.63C776.089 849.051 771.737 847.244 768.526 844.033C765.315 840.822 763.508 836.47 763.5 831.929V17.6392C763.547 13.1245 765.372 8.81041 768.579 5.63196C771.785 2.45351 776.115 0.666825 780.63 0.65918H1359.93C1364.44 0.674793 1368.76 2.46593 1371.95 5.64436C1375.15 8.8228 1376.96 13.1324 1377 17.6392V831.929C1377 836.462 1375.2 840.81 1372 844.021C1368.8 847.231 1364.46 849.043 1359.93 849.059ZM780.63 1.25918C776.288 1.26711 772.126 2.9954 769.056 6.06553C765.986 9.13566 764.258 13.2974 764.25 17.6392V831.929C764.258 836.271 765.986 840.433 769.056 843.503C772.126 846.573 776.288 848.301 780.63 848.309H1359.93C1364.27 848.301 1368.43 846.573 1371.5 843.503C1374.57 840.433 1376.3 836.271 1376.31 831.929V17.6392C1376.3 13.2974 1374.57 9.13566 1371.5 6.06553C1368.43 2.9954 1364.27 1.26711 1359.93 1.25918H780.63Z" fill="#EBEBEB"/>
<path d="M1270.44 91.9785H208.021V524.669H1270.44V91.9785Z" fill="#E6E6E6"/>
<path d="M1279.47 91.9785H217.051V524.669H1279.47V91.9785Z" fill="#F5F5F5"/>
<path d="M1263.24 506.431V110.221L233.31 110.221V506.431L1263.24 506.431Z" fill="white"/>
<path d="M1263.24 506.431V110.221H1256.4V506.431H1263.24Z" fill="#E6E6E6"/>
<path d="M1272.75 412.529H223.771V437.009H1272.75V412.529Z" fill="#F5F5F5"/>
<path d="M1297.2 61.7698H190.2C189.534 61.7776 188.897 62.0456 188.426 62.5165C187.955 62.9874 187.687 63.6238 187.68 64.2898C187.688 64.9529 187.957 65.5862 188.428 66.0523C188.9 66.5184 189.537 66.7798 190.2 66.7798H1297.2C1297.86 66.7798 1298.49 66.5174 1298.96 66.0505C1299.43 65.5835 1299.69 64.9502 1299.69 64.2898C1299.69 63.6266 1299.43 62.9901 1298.96 62.5184C1298.5 62.0466 1297.86 61.7777 1297.2 61.7698Z" fill="#E6E6E6"/>
<path d="M1312.2 64.2889C1312.18 66.7579 1311.42 69.1647 1310.03 71.2061C1308.65 73.2475 1306.68 74.8323 1304.4 75.7608C1302.11 76.6892 1299.6 76.9199 1297.18 76.4237C1294.76 75.9276 1292.54 74.7268 1290.8 72.9725C1289.07 71.2183 1287.89 68.9891 1287.41 66.5657C1286.94 64.1423 1287.19 61.6332 1288.15 59.3543C1289.1 57.0753 1290.7 55.1286 1292.75 53.7592C1294.81 52.3898 1297.22 51.659 1299.69 51.6589C1301.34 51.6589 1302.98 51.9864 1304.51 52.6226C1306.03 53.2587 1307.42 54.191 1308.58 55.3654C1309.74 56.5398 1310.66 57.933 1311.28 59.4647C1311.91 60.9964 1312.22 62.636 1312.2 64.2889Z" fill="#E6E6E6"/>
<path d="M211.381 78.2988C210.488 78.2909 209.633 77.9303 209.004 77.2954C208.375 76.6605 208.021 75.8027 208.021 74.9088V67.6488C208.021 66.7577 208.375 65.9031 209.006 65.2729C209.636 64.6428 210.49 64.2888 211.381 64.2888C212.275 64.2888 213.133 64.6418 213.768 65.2711C214.403 65.9004 214.764 66.755 214.771 67.6488V74.9088C214.764 75.8055 214.404 76.6632 213.77 77.2972C213.136 77.9313 212.278 78.291 211.381 78.2988Z" fill="#E6E6E6"/>
<path d="M1259.49 78.2978C1258.59 78.2899 1257.74 77.9303 1257.1 77.2962C1256.47 76.6621 1256.11 75.8044 1256.1 74.9078V67.6478C1256.11 66.7539 1256.47 65.8993 1257.1 65.2701C1257.74 64.6408 1258.6 64.2877 1259.49 64.2878C1259.95 64.2675 1260.4 64.3394 1260.82 64.4992C1261.25 64.6589 1261.64 64.9032 1261.96 65.2172C1262.29 65.5313 1262.55 65.9086 1262.73 66.3264C1262.91 66.7441 1263 67.1936 1263 67.6478V74.9078C1263 75.3632 1262.91 75.8141 1262.73 76.2334C1262.55 76.6527 1262.29 77.0319 1261.97 77.3483C1261.64 77.6647 1261.25 77.9119 1260.83 78.075C1260.4 78.2381 1259.95 78.3139 1259.49 78.2978Z" fill="#E6E6E6"/>
<path opacity="0.5" d="M1296.39 64.2888H223.771V245.999H1296.39V64.2888Z" fill="#E0E0E0"/>
<path d="M264 64.2893C263.976 66.7621 263.22 69.1724 261.827 71.2157C260.434 73.2589 258.467 74.8435 256.174 75.7693C253.881 76.695 251.364 76.9204 248.943 76.4169C246.522 75.9134 244.305 74.7036 242.571 72.9404C240.837 71.1771 239.664 68.9396 239.202 66.5104C238.739 64.0811 239.006 61.5692 239.97 59.292C240.934 57.0147 242.552 55.0742 244.618 53.7157C246.684 52.3572 249.107 51.6416 251.58 51.6593C253.226 51.6671 254.855 52.0006 256.372 52.6407C257.889 53.2808 259.265 54.2147 260.419 55.3887C261.574 56.5627 262.484 57.9536 263.099 59.4812C263.714 61.0087 264.02 62.6428 264 64.2893Z" fill="#E6E6E6"/>
<path d="M368.099 611.217H289.289L298.589 421.617H368.099V611.217Z" fill="#F5F5F5"/>
<path d="M210.81 640.38L193.83 693.39H210.81L315 640.38H210.81Z" fill="#F5F5F5"/>
<path d="M193.83 640.38V693.39L298.02 640.38H193.83Z" fill="#E6E6E6"/>
<path d="M665.07 640.38L648.09 693.39H665.07L769.26 640.38H665.07Z" fill="#F5F5F5"/>
<path d="M648.09 640.38V693.39L752.25 640.38H648.09Z" fill="#E6E6E6"/>
<path d="M163.411 642.568H230.641V611.518H163.411V642.568Z" fill="#E6E6E6"/>
<path d="M793.981 611.488H230.641V642.538H793.981V611.488Z" fill="#F5F5F5"/>
<path d="M599.971 611.218H314.701L293.791 381.448H579.061L599.971 611.218Z" fill="#E6E6E6"/>
<path d="M608.731 611.218H323.461L302.551 381.448H587.821L608.731 611.218Z" fill="#F0F0F0"/>
<path d="M337.679 585.781L318.539 406.891H573.599L592.739 585.781H337.679Z" fill="white"/>
<path d="M974.34 638.218H874.26V967.318H974.34V638.218Z" fill="#F0F0F0"/>
<path d="M1277.79 967.322H893.461V982.862H1277.79V967.322Z" fill="#F0F0F0"/>
<path d="M974.34 967.349H1297.02V638.249H974.34V967.349Z" fill="#F5F5F5"/>
<path d="M981.301 842.97H1290.06V762.6H981.301V842.97Z" fill="#F0F0F0"/>
<path d="M981.301 937.979H1290.06V857.609H981.301V937.979Z" fill="#F0F0F0"/>
<path d="M981.301 747.929H1290.06V667.559H981.301V747.929Z" fill="#F0F0F0"/>
<path d="M1310.37 611.221H974.34V638.251H1310.37V611.221Z" fill="#F0F0F0"/>
<path d="M860.249 638.218H974.309V611.188H860.249V638.218Z" fill="#E6E6E6"/>
<path d="M205.35 982.86H326.91V775.98H205.35L205.35 982.86Z" fill="#F0F0F0"/>
<path d="M688.41 775.978H326.91V982.857H688.41V775.978Z" fill="#F5F5F5"/>
<path d="M689.67 866.219H439.65V944.039H689.67V866.219Z" fill="#FAFAFA"/>
<g style="mix-blend-mode:multiply" opacity="0.7">
<path d="M205.381 804.629L689.701 804.629V794.639L205.381 794.639V804.629Z" fill="#E6E6E6"/>
</g>
<path d="M198.661 798.839H326.941V769.919H198.661V798.839Z" fill="#F0F0F0"/>
<path d="M695.13 769.948H326.91V798.868H695.13V769.948Z" fill="#F5F5F5"/>
<path d="M750 1118.34C1071.25 1118.34 1331.67 1103.14 1331.67 1084.38C1331.67 1065.63 1071.25 1050.42 750 1050.42C428.753 1050.42 168.33 1065.63 168.33 1084.38C168.33 1103.14 428.753 1118.34 750 1118.34Z" fill="#F5F5F5"/>
<path d="M1012.32 1026.18H1172.55C1176 1026.18 1179.34 1024.94 1181.95 1022.68C1184.56 1020.42 1186.27 1017.3 1186.77 1013.88L1227 739.679C1227.3 737.636 1227.16 735.552 1226.58 733.569C1226.01 731.586 1225.01 729.751 1223.66 728.188C1222.31 726.625 1220.64 725.371 1218.76 724.512C1216.89 723.653 1214.84 723.208 1212.78 723.209H1052.43C1048.97 723.202 1045.63 724.441 1043.01 726.701C1040.39 728.96 1038.68 732.087 1038.18 735.509L998.069 1009.71C997.773 1011.75 997.919 1013.84 998.499 1015.82C999.079 1017.8 1000.08 1019.64 1001.43 1021.2C1002.78 1022.76 1004.45 1024.02 1006.33 1024.88C1008.21 1025.73 1010.25 1026.18 1012.32 1026.18Z" fill="#FFB573"/>
<path opacity="0.1" d="M1012.32 1026.18H1172.55C1176 1026.18 1179.34 1024.94 1181.95 1022.68C1184.56 1020.42 1186.27 1017.3 1186.77 1013.88L1227 739.679C1227.3 737.636 1227.16 735.552 1226.58 733.569C1226.01 731.586 1225.01 729.751 1223.66 728.188C1222.31 726.625 1220.64 725.371 1218.76 724.512C1216.89 723.653 1214.84 723.208 1212.78 723.209H1052.43C1048.97 723.202 1045.63 724.441 1043.01 726.701C1040.39 728.96 1038.68 732.087 1038.18 735.509L998.069 1009.71C997.773 1011.75 997.919 1013.84 998.499 1015.82C999.079 1017.8 1000.08 1019.64 1001.43 1021.2C1002.78 1022.76 1004.45 1024.02 1006.33 1024.88C1008.21 1025.73 1010.25 1026.18 1012.32 1026.18Z" fill="black"/>
<path d="M1153.47 1026.18H1229.04C1232.49 1026.18 1235.83 1024.94 1238.44 1022.68C1241.05 1020.42 1242.76 1017.3 1243.26 1013.88L1283.37 739.679C1283.67 737.636 1283.53 735.552 1282.95 733.569C1282.38 731.586 1281.38 729.751 1280.03 728.188C1278.68 726.625 1277.01 725.371 1275.13 724.512C1273.26 723.653 1271.21 723.208 1269.15 723.209H1193.58C1190.13 723.209 1186.79 724.452 1184.18 726.71C1181.57 728.969 1179.86 732.092 1179.36 735.509L1139.25 1009.71C1138.95 1011.75 1139.09 1013.84 1139.67 1015.82C1140.24 1017.8 1141.24 1019.64 1142.59 1021.2C1143.94 1022.76 1145.61 1024.02 1147.49 1024.88C1149.36 1025.73 1151.4 1026.18 1153.47 1026.18Z" fill="#FFB573"/>
<path opacity="0.2" d="M1153.47 1026.18H1229.04C1232.49 1026.18 1235.83 1024.94 1238.44 1022.68C1241.05 1020.42 1242.76 1017.3 1243.26 1013.88L1283.37 739.679C1283.67 737.636 1283.53 735.552 1282.95 733.569C1282.38 731.586 1281.38 729.751 1280.03 728.188C1278.68 726.625 1277.01 725.371 1275.13 724.512C1273.26 723.653 1271.21 723.208 1269.15 723.209H1193.58C1190.13 723.209 1186.79 724.452 1184.18 726.71C1181.57 728.969 1179.86 732.092 1179.36 735.509L1139.25 1009.71C1138.95 1011.75 1139.09 1013.84 1139.67 1015.82C1140.24 1017.8 1141.24 1019.64 1142.59 1021.2C1143.94 1022.76 1145.61 1024.02 1147.49 1024.88C1149.36 1025.73 1151.4 1026.18 1153.47 1026.18Z" fill="white"/>
<path d="M312.691 653.729H975.931C995.731 653.729 1013.13 668.549 1014.93 686.729L1034.55 898.439C1036.23 916.709 1021.56 931.439 1001.79 931.439H338.431C318.661 931.439 301.261 916.589 299.431 898.439L279.841 686.729C278.251 668.549 292.921 653.729 312.691 653.729Z" fill="#FFB573"/>
<path opacity="0.2" d="M312.691 653.729H975.931C995.731 653.729 1013.13 668.549 1014.93 686.729L1034.55 898.439C1036.23 916.709 1021.56 931.439 1001.79 931.439H338.431C318.661 931.439 301.261 916.589 299.431 898.439L279.841 686.729C278.251 668.549 292.921 653.729 312.691 653.729Z" fill="black"/>
<path d="M365.552 653.729H1028.79C1048.59 653.729 1065.99 668.549 1067.79 686.729L1087.41 898.439C1089.09 916.709 1074.45 931.439 1054.65 931.439H391.292C371.522 931.439 354.122 916.589 352.292 898.439L332.702 686.729C331.112 668.549 345.782 653.729 365.552 653.729Z" fill="#FFB573"/>
<path d="M1127.13 1002.72V927.328C1127.13 914.372 1116.63 903.868 1103.67 903.868H856.559C843.602 903.868 833.099 914.372 833.099 927.328V1002.72C833.099 1015.67 843.602 1026.18 856.559 1026.18H1103.67C1116.63 1026.18 1127.13 1015.67 1127.13 1002.72Z" fill="#FFB573"/>
<path opacity="0.2" d="M1127.13 1002.72V927.328C1127.13 914.372 1116.63 903.868 1103.67 903.868H856.559C843.602 903.868 833.099 914.372 833.099 927.328V1002.72C833.099 1015.67 843.602 1026.18 856.559 1026.18H1103.67C1116.63 1026.18 1127.13 1015.67 1127.13 1002.72Z" fill="white"/>
<path d="M772.289 1004.73V925.377C772.289 913.514 762.672 903.897 750.809 903.897H454.709C442.846 903.897 433.229 913.514 433.229 925.377V1004.73C433.229 1016.59 442.846 1026.21 454.709 1026.21H750.809C762.672 1026.21 772.289 1016.59 772.289 1004.73Z" fill="#FFB573"/>
<path opacity="0.1" d="M772.289 1004.73V925.377C772.289 913.514 762.672 903.897 750.809 903.897H454.709C442.846 903.897 433.229 913.514 433.229 925.377V1004.73C433.229 1016.59 442.846 1026.21 454.709 1026.21H750.809C762.672 1026.21 772.289 1016.59 772.289 1004.73Z" fill="black"/>
<path d="M833.07 1004.73V925.377C833.07 913.514 823.453 903.897 811.59 903.897H538.59C526.727 903.897 517.11 913.514 517.11 925.377V1004.73C517.11 1016.59 526.727 1026.21 538.59 1026.21H811.59C823.453 1026.21 833.07 1016.59 833.07 1004.73Z" fill="#FFB573"/>
<path opacity="0.2" d="M833.07 1004.73V925.377C833.07 913.514 823.453 903.897 811.59 903.897H538.59C526.727 903.897 517.11 913.514 517.11 925.377V1004.73C517.11 1016.59 526.727 1026.21 538.59 1026.21H811.59C823.453 1026.21 833.07 1016.59 833.07 1004.73Z" fill="white"/>
<path d="M315.001 1026.18H434.191C436.182 1026.19 438.149 1025.73 439.927 1024.84C441.705 1023.94 443.245 1022.63 444.418 1021.02C445.59 1019.41 446.363 1017.55 446.671 1015.58C446.98 1013.61 446.815 1011.6 446.191 1009.71L371.191 735.509C370.217 732.038 368.156 728.971 365.31 726.757C362.465 724.543 358.985 723.3 355.381 723.209H236.101C234.107 723.188 232.137 723.644 230.355 724.538C228.573 725.433 227.03 726.74 225.856 728.352C224.682 729.964 223.91 731.832 223.605 733.803C223.299 735.773 223.469 737.788 224.101 739.679L299.101 1013.88C300.083 1017.36 302.159 1020.44 305.021 1022.65C307.884 1024.87 311.382 1026.1 315.001 1026.18Z" fill="#FFB573"/>
<path opacity="0.1" d="M315.001 1026.18H434.191C436.182 1026.19 438.149 1025.73 439.927 1024.84C441.705 1023.94 443.245 1022.63 444.418 1021.02C445.59 1019.41 446.363 1017.55 446.671 1015.58C446.98 1013.61 446.815 1011.6 446.191 1009.71L371.191 735.509C370.217 732.038 368.156 728.971 365.31 726.757C362.465 724.543 358.985 723.3 355.381 723.209H236.101C234.107 723.188 232.137 723.644 230.355 724.538C228.573 725.433 227.03 726.74 225.856 728.352C224.682 729.964 223.91 731.832 223.605 733.803C223.299 735.773 223.469 737.788 224.101 739.679L299.101 1013.88C300.083 1017.36 302.159 1020.44 305.021 1022.65C307.884 1024.87 311.382 1026.1 315.001 1026.18Z" fill="black"/>
<path d="M414.991 1026.18H490.531C492.535 1026.22 494.52 1025.78 496.318 1024.89C498.116 1024 499.675 1022.7 500.865 1021.09C502.055 1019.47 502.841 1017.6 503.157 1015.62C503.473 1013.64 503.31 1011.61 502.681 1009.71L427.681 735.509C426.709 732.043 424.652 728.979 421.813 726.766C418.973 724.552 415.5 723.306 411.901 723.209H336.241C334.247 723.188 332.277 723.644 330.495 724.538C328.713 725.433 327.171 726.74 325.997 728.352C324.823 729.964 324.051 731.832 323.745 733.803C323.44 735.773 323.61 737.788 324.241 739.679L399.241 1013.88C400.216 1017.34 402.269 1020.4 405.102 1022.61C407.934 1024.82 411.399 1026.07 414.991 1026.18Z" fill="#FFB573"/>
<path opacity="0.2" d="M414.991 1026.18H490.531C492.535 1026.22 494.52 1025.78 496.318 1024.89C498.116 1024 499.675 1022.7 500.865 1021.09C502.055 1019.47 502.841 1017.6 503.157 1015.62C503.473 1013.64 503.31 1011.61 502.681 1009.71L427.681 735.509C426.709 732.043 424.652 728.979 421.813 726.766C418.973 724.552 415.5 723.306 411.901 723.209H336.241C334.247 723.188 332.277 723.644 330.495 724.538C328.713 725.433 327.171 726.74 325.997 728.352C324.823 729.964 324.051 731.832 323.745 733.803C323.44 735.773 323.61 737.788 324.241 739.679L399.241 1013.88C400.216 1017.34 402.269 1020.4 405.102 1022.61C407.934 1024.82 411.399 1026.07 414.991 1026.18Z" fill="white"/>
<path d="M486 1071.66C487.077 1071.66 488.138 1071.39 489.078 1070.86C490.019 1070.34 490.808 1069.58 491.37 1068.66L517.02 1026.36H488.61L480 1063.8C479.758 1064.72 479.73 1065.69 479.917 1066.62C480.104 1067.56 480.503 1068.43 481.081 1069.19C481.66 1069.95 482.403 1070.57 483.256 1070.99C484.108 1071.42 485.047 1071.65 486 1071.66Z" fill="#263238"/>
<path d="M340.621 1071.66C341.699 1071.66 342.759 1071.39 343.7 1070.86C344.64 1070.34 345.429 1069.58 345.991 1068.66L371.641 1026.36H343.231L334.471 1063.98C334.264 1064.9 334.267 1065.86 334.48 1066.78C334.693 1067.7 335.11 1068.56 335.701 1069.3C336.291 1070.03 337.04 1070.63 337.892 1071.04C338.744 1071.45 339.677 1071.66 340.621 1071.66Z" fill="#263238"/>
<path d="M1036.32 1071.66C1035.24 1071.66 1034.18 1071.39 1033.24 1070.86C1032.3 1070.34 1031.51 1069.58 1030.95 1068.66L1005.3 1026.36H1033.71L1042.47 1063.98C1042.68 1064.9 1042.67 1065.86 1042.46 1066.78C1042.25 1067.7 1041.83 1068.56 1041.24 1069.29C1040.65 1070.03 1039.9 1070.63 1039.05 1071.04C1038.2 1071.45 1037.27 1071.66 1036.32 1071.66Z" fill="#263238"/>
<path d="M1182 1071.66C1180.92 1071.67 1179.85 1071.39 1178.91 1070.87C1177.96 1070.34 1177.17 1069.58 1176.6 1068.66L1150.98 1026.36H1179.36L1188 1063.8C1188.24 1064.72 1188.27 1065.68 1188.08 1066.62C1187.9 1067.55 1187.5 1068.43 1186.92 1069.19C1186.34 1069.95 1185.6 1070.57 1184.74 1070.99C1183.89 1071.42 1182.95 1071.65 1182 1071.66Z" fill="#263238"/>
<path d="M1233 516.061C1230.01 514.681 1226.77 513.926 1223.48 513.843C1220.19 513.761 1216.91 514.352 1213.86 515.581C1214.26 512.173 1213.92 508.718 1212.88 505.451C1211.83 502.183 1210.09 499.178 1207.78 496.639C1205.47 494.1 1202.64 492.086 1199.49 490.732C1196.34 489.378 1192.93 488.716 1189.5 488.791C1189.71 488.431 1189.89 488.041 1190.1 487.651C1190.49 486.771 1190.79 485.857 1191 484.921C1192.07 484.699 1193.08 484.227 1193.94 483.545C1194.8 482.862 1195.49 481.988 1195.95 480.991C1196.58 479.657 1196.77 478.161 1196.51 476.712C1196.24 475.262 1195.53 473.931 1194.48 472.904C1193.42 471.877 1192.07 471.205 1190.61 470.982C1189.16 470.76 1187.67 470.997 1186.35 471.661C1185.5 470.978 1184.57 470.394 1183.59 469.921C1181.99 469.111 1180.25 468.631 1178.46 468.51C1176.67 468.389 1174.87 468.629 1173.18 469.216C1171.49 469.804 1169.93 470.726 1168.6 471.929C1167.27 473.131 1166.2 474.589 1165.44 476.216C1164.69 477.842 1164.27 479.604 1164.21 481.395C1164.15 483.187 1164.46 484.972 1165.1 486.644C1165.75 488.316 1166.73 489.841 1167.98 491.127C1169.22 492.413 1170.72 493.435 1172.37 494.131C1172.88 494.385 1173.41 494.596 1173.96 494.761C1169.43 498.428 1166.4 503.616 1165.41 509.357C1164.43 515.099 1165.57 521.002 1168.61 525.967C1171.66 530.931 1176.41 534.617 1181.98 536.339C1187.54 538.06 1193.54 537.698 1198.86 535.321C1198.37 539.739 1199.11 544.206 1201 548.231C1202.88 552.256 1205.84 555.682 1209.55 558.131C1213.26 560.581 1217.57 561.96 1222.02 562.116C1226.46 562.272 1230.86 561.198 1234.73 559.014C1238.6 556.83 1241.79 553.62 1243.96 549.738C1246.12 545.855 1247.17 541.451 1246.99 537.009C1246.81 532.568 1245.41 528.262 1242.94 524.566C1240.48 520.87 1237.03 517.927 1233 516.061Z" fill="white"/>
<path d="M1283.1 483.66C1280.56 482.479 1277.77 481.904 1274.97 481.98C1274.97 481.063 1274.71 480.166 1274.22 479.394C1273.72 478.623 1273.01 478.01 1272.18 477.63C1271.24 477.187 1270.17 477.061 1269.15 477.271C1268.13 477.481 1267.21 478.016 1266.51 478.796C1265.82 479.576 1265.4 480.558 1265.31 481.597C1265.23 482.636 1265.48 483.676 1266.03 484.56C1262.54 486.654 1259.85 489.857 1258.39 493.657C1256.93 497.457 1256.78 501.637 1257.97 505.531C1259.16 509.424 1261.62 512.808 1264.95 515.143C1268.29 517.478 1272.31 518.63 1276.37 518.416C1280.44 518.202 1284.32 516.633 1287.39 513.96C1290.46 511.287 1292.55 507.664 1293.32 503.667C1294.1 499.67 1293.51 495.529 1291.66 491.903C1289.8 488.277 1286.79 485.376 1283.1 483.66Z" fill="white"/>
<path d="M1220.82 494.096C1222.1 494.687 1223.52 494.884 1224.91 494.665C1226.3 494.446 1227.6 493.819 1228.63 492.864C1229.66 491.909 1230.39 490.669 1230.72 489.301C1231.05 487.933 1230.96 486.498 1230.47 485.178C1229.99 483.858 1229.12 482.713 1227.98 481.887C1226.84 481.061 1225.48 480.591 1224.07 480.537C1222.67 480.483 1221.28 480.848 1220.08 481.585C1218.88 482.322 1217.93 483.398 1217.34 484.676C1216.95 485.523 1216.73 486.439 1216.69 487.371C1216.65 488.304 1216.8 489.235 1217.12 490.11C1217.45 490.986 1217.94 491.789 1218.57 492.473C1219.21 493.157 1219.97 493.709 1220.82 494.096Z" fill="white"/>
<path d="M1275.42 461.399H1275.87C1275.88 462.2 1276.08 462.986 1276.47 463.687C1276.86 464.388 1277.41 464.982 1278.09 465.416C1278.76 465.849 1279.53 466.108 1280.33 466.169C1281.13 466.23 1281.93 466.092 1282.66 465.767C1283.39 465.442 1284.03 464.94 1284.52 464.306C1285.01 463.672 1285.34 462.926 1285.47 462.136C1285.6 461.346 1285.53 460.536 1285.27 459.778C1285.01 459.021 1284.56 458.341 1283.97 457.799C1284.58 456.291 1284.59 454.605 1283.99 453.091C1283.4 451.577 1282.24 450.351 1280.76 449.669C1279.99 449.251 1279.15 448.995 1278.27 448.917C1277.4 448.839 1276.53 448.941 1275.7 449.216C1274.86 449.492 1274.1 449.935 1273.45 450.518C1272.8 451.101 1272.27 451.811 1271.9 452.606C1271.54 453.4 1271.34 454.261 1271.32 455.136C1271.3 456.01 1271.46 456.88 1271.79 457.69C1272.12 458.5 1272.61 459.234 1273.23 459.846C1273.86 460.459 1274.6 460.936 1275.42 461.249V461.399Z" fill="white"/>
<path d="M1231.5 455.487C1230.82 456.938 1230.72 458.591 1231.21 460.116C1231.69 461.641 1232.74 462.925 1234.13 463.713C1235.53 464.501 1237.17 464.734 1238.72 464.366C1240.28 463.998 1241.64 463.056 1242.54 461.727C1243.12 461.993 1243.74 462.143 1244.37 462.168C1245.01 462.192 1245.64 462.092 1246.24 461.872C1246.84 461.652 1247.38 461.316 1247.85 460.885C1248.32 460.454 1248.69 459.934 1248.96 459.357C1249.22 458.78 1249.37 458.156 1249.4 457.521C1249.42 456.886 1249.32 456.253 1249.1 455.656C1248.88 455.06 1248.55 454.513 1248.12 454.047C1247.69 453.58 1247.17 453.203 1246.59 452.937C1245.87 452.611 1245.08 452.462 1244.29 452.504C1243.51 452.546 1242.74 452.777 1242.06 453.177C1242.3 452.038 1242.11 450.85 1241.55 449.834C1240.98 448.818 1240.06 448.041 1238.97 447.647C1237.87 447.253 1236.67 447.267 1235.58 447.688C1234.5 448.109 1233.6 448.908 1233.06 449.937C1232.55 451.122 1232.53 452.457 1233 453.657C1232.4 454.178 1231.89 454.796 1231.5 455.487Z" fill="white"/>
<path d="M1241.67 429.657C1241.97 429.797 1242.3 429.876 1242.63 429.89C1242.96 429.904 1243.29 429.852 1243.6 429.738C1243.92 429.624 1244.2 429.449 1244.45 429.225C1244.69 429 1244.89 428.729 1245.03 428.427C1245.17 428.126 1245.25 427.8 1245.26 427.468C1245.28 427.136 1245.23 426.805 1245.11 426.493C1245 426.181 1244.82 425.894 1244.6 425.65C1244.37 425.405 1244.1 425.207 1243.8 425.067C1243.19 424.785 1242.5 424.756 1241.87 424.986C1241.24 425.217 1240.72 425.689 1240.44 426.297C1240.16 426.906 1240.13 427.602 1240.36 428.232C1240.59 428.862 1241.06 429.375 1241.67 429.657Z" fill="white"/>
<path d="M1282.62 411.119C1283.49 411.517 1284.46 411.649 1285.4 411.498C1286.34 411.347 1287.22 410.92 1287.92 410.271C1288.62 409.623 1289.11 408.781 1289.33 407.853C1289.55 406.924 1289.5 405.951 1289.17 405.056C1288.84 404.16 1288.25 403.383 1287.47 402.822C1286.7 402.26 1285.78 401.94 1284.83 401.902C1283.87 401.864 1282.93 402.109 1282.12 402.607C1281.3 403.105 1280.65 403.833 1280.25 404.699C1279.98 405.276 1279.83 405.9 1279.81 406.535C1279.78 407.171 1279.88 407.805 1280.1 408.401C1280.32 408.998 1280.66 409.545 1281.09 410.011C1281.52 410.478 1282.04 410.854 1282.62 411.119Z" fill="white"/>
<g opacity="0.2">
<path d="M1233 516.062C1230.01 514.681 1226.77 513.926 1223.48 513.844C1220.19 513.761 1216.91 514.353 1213.86 515.582C1214.26 512.173 1213.92 508.719 1212.88 505.451C1211.83 502.184 1210.09 499.179 1207.78 496.64C1205.47 494.101 1202.64 492.086 1199.49 490.733C1196.34 489.379 1192.93 488.717 1189.5 488.792C1189.71 488.432 1189.89 488.042 1190.1 487.652C1190.49 486.772 1190.79 485.858 1191 484.922C1192.07 484.699 1193.08 484.228 1193.94 483.545C1194.8 482.863 1195.49 481.988 1195.95 480.992C1196.58 479.658 1196.77 478.162 1196.51 476.712C1196.24 475.262 1195.53 473.931 1194.48 472.904C1193.42 471.877 1192.07 471.205 1190.61 470.983C1189.16 470.76 1187.67 470.997 1186.35 471.662C1185.5 470.979 1184.57 470.395 1183.59 469.922C1181.99 469.111 1180.25 468.631 1178.46 468.51C1176.67 468.389 1174.87 468.63 1173.18 469.217C1171.49 469.804 1169.93 470.727 1168.6 471.929C1167.27 473.132 1166.2 474.59 1165.44 476.216C1164.69 477.843 1164.27 479.604 1164.21 481.396C1164.15 483.187 1164.46 484.973 1165.1 486.644C1165.75 488.316 1166.73 489.841 1167.98 491.127C1169.22 492.414 1170.72 493.435 1172.37 494.132C1172.88 494.385 1173.41 494.596 1173.96 494.762C1169.43 498.428 1166.4 503.616 1165.41 509.358C1164.43 515.099 1165.57 521.003 1168.61 525.967C1171.66 530.931 1176.41 534.618 1181.98 536.339C1187.54 538.06 1193.54 537.699 1198.86 535.322C1198.37 539.74 1199.11 544.207 1201 548.232C1202.88 552.256 1205.84 555.682 1209.55 558.132C1213.26 560.582 1217.57 561.961 1222.02 562.116C1226.46 562.272 1230.86 561.199 1234.73 559.015C1238.6 556.831 1241.79 553.621 1243.96 549.738C1246.12 545.856 1247.17 541.451 1246.99 537.01C1246.81 532.568 1245.41 528.263 1242.94 524.567C1240.48 520.87 1237.03 517.927 1233 516.062Z" fill="#FFB573"/>
<path d="M1283.1 483.66C1280.55 482.48 1277.77 481.905 1274.97 481.98C1274.97 481.064 1274.71 480.166 1274.21 479.395C1273.72 478.623 1273.01 478.011 1272.18 477.63C1271.23 477.187 1270.17 477.061 1269.15 477.272C1268.13 477.482 1267.2 478.017 1266.51 478.796C1265.82 479.576 1265.4 480.559 1265.31 481.598C1265.23 482.637 1265.48 483.676 1266.03 484.56C1262.54 486.655 1259.85 489.857 1258.39 493.657C1256.93 497.458 1256.78 501.638 1257.97 505.531C1259.16 509.425 1261.62 512.809 1264.95 515.144C1268.29 517.479 1272.31 518.631 1276.37 518.416C1280.44 518.202 1284.32 516.634 1287.39 513.961C1290.46 511.288 1292.55 507.665 1293.32 503.667C1294.09 499.67 1293.51 495.529 1291.65 491.903C1289.8 488.278 1286.79 485.376 1283.1 483.66Z" fill="#FFB573"/>
<path d="M1220.82 494.097C1222.1 494.687 1223.52 494.885 1224.91 494.665C1226.3 494.446 1227.59 493.819 1228.63 492.864C1229.66 491.91 1230.39 490.67 1230.72 489.301C1231.04 487.933 1230.96 486.498 1230.47 485.179C1229.98 483.859 1229.12 482.713 1227.98 481.887C1226.84 481.061 1225.48 480.591 1224.07 480.538C1222.67 480.484 1221.28 480.849 1220.08 481.585C1218.88 482.322 1217.93 483.398 1217.34 484.677C1216.95 485.523 1216.72 486.439 1216.69 487.372C1216.65 488.304 1216.8 489.235 1217.12 490.111C1217.44 490.986 1217.94 491.789 1218.57 492.473C1219.21 493.157 1219.97 493.709 1220.82 494.097Z" fill="#FFB573"/>
<path d="M1275.42 461.399H1275.87C1275.88 462.2 1276.08 462.987 1276.47 463.688C1276.86 464.389 1277.41 464.983 1278.09 465.416C1278.76 465.849 1279.53 466.108 1280.33 466.17C1281.13 466.231 1281.93 466.093 1282.66 465.768C1283.39 465.442 1284.03 464.94 1284.52 464.306C1285.01 463.672 1285.34 462.927 1285.47 462.137C1285.6 461.346 1285.53 460.536 1285.27 459.779C1285.01 459.022 1284.56 458.342 1283.97 457.799C1284.58 456.291 1284.59 454.605 1283.99 453.091C1283.4 451.577 1282.24 450.352 1280.76 449.669C1279.99 449.251 1279.15 448.995 1278.27 448.917C1277.4 448.84 1276.53 448.942 1275.7 449.217C1274.86 449.492 1274.1 449.935 1273.45 450.518C1272.8 451.101 1272.27 451.812 1271.9 452.606C1271.54 453.401 1271.34 454.262 1271.32 455.136C1271.3 456.011 1271.46 456.88 1271.79 457.691C1272.12 458.501 1272.61 459.235 1273.23 459.847C1273.86 460.459 1274.6 460.936 1275.42 461.249V461.399Z" fill="#FFB573"/>
<path d="M1231.5 455.488C1230.82 456.939 1230.72 458.592 1231.21 460.116C1231.69 461.641 1232.74 462.926 1234.13 463.714C1235.53 464.502 1237.17 464.735 1238.72 464.367C1240.28 463.998 1241.64 463.056 1242.54 461.728C1243.12 461.994 1243.74 462.143 1244.37 462.168C1245.01 462.193 1245.64 462.092 1246.24 461.872C1246.84 461.652 1247.38 461.317 1247.85 460.886C1248.32 460.454 1248.69 459.935 1248.96 459.358C1249.22 458.781 1249.37 458.157 1249.4 457.522C1249.42 456.887 1249.32 456.253 1249.1 455.657C1248.88 455.061 1248.55 454.514 1248.12 454.047C1247.69 453.581 1247.17 453.204 1246.59 452.938C1245.87 452.611 1245.08 452.463 1244.29 452.505C1243.51 452.546 1242.74 452.777 1242.06 453.178C1242.3 452.038 1242.11 450.851 1241.55 449.835C1240.98 448.819 1240.06 448.042 1238.97 447.648C1237.87 447.253 1236.67 447.268 1235.58 447.689C1234.5 448.109 1233.6 448.908 1233.06 449.938C1232.55 451.122 1232.53 452.458 1233 453.658C1232.4 454.178 1231.89 454.797 1231.5 455.488Z" fill="#FFB573"/>
<path d="M1241.67 429.658C1241.97 429.798 1242.3 429.877 1242.63 429.891C1242.96 429.905 1243.29 429.853 1243.6 429.739C1243.92 429.625 1244.2 429.45 1244.45 429.225C1244.69 429 1244.89 428.729 1245.03 428.428C1245.17 428.126 1245.25 427.8 1245.26 427.468C1245.28 427.137 1245.23 426.805 1245.11 426.493C1245 426.181 1244.82 425.895 1244.6 425.65C1244.37 425.406 1244.1 425.208 1243.8 425.068C1243.19 424.785 1242.5 424.756 1241.87 424.987C1241.24 425.218 1240.72 425.689 1240.44 426.298C1240.16 426.907 1240.13 427.602 1240.36 428.233C1240.59 428.863 1241.06 429.375 1241.67 429.658Z" fill="#FFB573"/>
<path d="M1282.62 411.119C1283.49 411.517 1284.45 411.649 1285.4 411.498C1286.34 411.347 1287.22 410.921 1287.92 410.272C1288.62 409.623 1289.11 408.782 1289.33 407.853C1289.55 406.925 1289.49 405.952 1289.16 405.056C1288.83 404.161 1288.24 403.383 1287.47 402.822C1286.7 402.261 1285.78 401.941 1284.83 401.903C1283.87 401.865 1282.93 402.11 1282.11 402.608C1281.3 403.105 1280.65 403.833 1280.25 404.699C1279.98 405.276 1279.83 405.9 1279.81 406.536C1279.78 407.171 1279.88 407.805 1280.1 408.402C1280.32 408.998 1280.66 409.545 1281.09 410.012C1281.52 410.478 1282.04 410.855 1282.62 411.119Z" fill="#FFB573"/>
</g>
<path d="M1185.96 692.43L1087.68 664.26C1086.48 663.915 1085.45 663.133 1084.79 662.067C1084.14 661.001 1083.9 659.729 1084.14 658.5L1111.59 514.05L1245.27 552.39L1192.02 689.43C1191.57 690.597 1190.69 691.551 1189.57 692.107C1188.45 692.662 1187.16 692.777 1185.96 692.43Z" fill="#FFB573"/>
<path d="M1145.43 680.817L1128.21 675.867L1167.66 530.127L1189.17 536.307L1145.43 680.817Z" fill="white"/>
<path d="M1179.69 690.628L1162.47 685.708L1210.44 542.398L1231.95 548.548L1179.69 690.628Z" fill="white"/>
<path d="M1111.17 670.98L1093.95 666.06L1124.88 517.86L1146.39 524.04L1111.17 670.98Z" fill="white"/>
<path d="M1242 558.241L1111.32 520.771C1110.49 520.536 1109.72 520.14 1109.04 519.606C1108.37 519.071 1107.81 518.408 1107.39 517.656C1106.97 516.903 1106.7 516.076 1106.61 515.22C1106.51 514.365 1106.58 513.499 1106.82 512.671C1107.31 511.009 1108.43 509.606 1109.95 508.769C1111.47 507.932 1113.25 507.728 1114.92 508.201L1245.6 545.671C1247.26 546.153 1248.66 547.272 1249.5 548.784C1250.34 550.296 1250.54 552.079 1250.07 553.741C1249.59 555.407 1248.48 556.817 1246.97 557.66C1245.45 558.504 1243.67 558.713 1242 558.241Z" fill="#FFB573"/>
<path opacity="0.2" d="M1242 558.241L1111.32 520.771C1110.49 520.536 1109.72 520.14 1109.04 519.606C1108.37 519.071 1107.81 518.408 1107.39 517.656C1106.97 516.903 1106.7 516.076 1106.61 515.22C1106.51 514.365 1106.58 513.499 1106.82 512.671C1107.31 511.009 1108.43 509.606 1109.95 508.769C1111.47 507.932 1113.25 507.728 1114.92 508.201L1245.6 545.671C1247.26 546.153 1248.66 547.272 1249.5 548.784C1250.34 550.296 1250.54 552.079 1250.07 553.741C1249.59 555.407 1248.48 556.817 1246.97 557.66C1245.45 558.504 1243.67 558.713 1242 558.241Z" fill="black"/>
<path d="M327.457 701.872L269.484 709.011L270.364 716.157L328.336 709.018L327.457 701.872Z" fill="black"/>
<path d="M328.39 708.978L354.205 705.799L353.325 698.653L327.51 701.832L328.39 708.978Z" fill="#263238"/>
<path d="M721.022 1029.12L743.312 1022.82L734.702 969.479L712.412 975.779L721.022 1029.12Z" fill="#FFC3BD"/>
<path d="M533.283 1060.71H556.443L562.233 1007.04H539.043L533.283 1060.71Z" fill="#FFC3BD"/>
<path d="M558.362 1058.04H530.102C529.645 1058.04 529.201 1058.2 528.842 1058.48C528.483 1058.76 528.229 1059.16 528.122 1059.6L523.562 1080.21C523.453 1080.71 523.459 1081.23 523.58 1081.73C523.7 1082.23 523.933 1082.69 524.259 1083.09C524.586 1083.48 524.998 1083.8 525.464 1084.01C525.93 1084.23 526.439 1084.33 526.952 1084.32C535.952 1084.17 542.672 1083.63 553.952 1083.63C561.002 1083.63 582.242 1084.38 591.992 1084.38C601.742 1084.38 602.972 1074.75 598.982 1073.88C580.982 1069.98 567.692 1064.58 561.962 1059.45C560.97 1058.56 559.692 1058.06 558.362 1058.04Z" fill="#263238"/>
<path d="M742.444 1020.27L718.084 1027.14C717.638 1027.26 717.248 1027.54 716.981 1027.91C716.713 1028.29 716.583 1028.75 716.614 1029.21L717.784 1050.21C717.817 1050.71 717.963 1051.2 718.211 1051.65C718.46 1052.09 718.805 1052.46 719.22 1052.75C719.635 1053.04 720.11 1053.23 720.61 1053.31C721.109 1053.39 721.62 1053.36 722.104 1053.21C730.864 1050.6 743.404 1046.49 754.444 1043.4C767.374 1039.74 778.714 1037.4 793.864 1033.05C803.014 1030.47 802.864 1020.48 798.874 1020.72C780.364 1021.83 765.874 1025.43 748.294 1020.39C746.392 1019.81 744.368 1019.77 742.444 1020.27Z" fill="#263238"/>
<path d="M609.932 324.24L645.932 348.78C657.932 356.97 669.932 365.1 681.932 372.78L684.182 374.22L684.422 374.37H684.122C683.81 374.269 683.474 374.269 683.162 374.37C682.832 374.7 684.302 374.58 686.162 373.53C691.107 370.423 695.54 366.567 699.302 362.1C703.902 356.962 708.228 351.584 712.262 345.99C716.462 340.35 720.542 334.26 724.262 328.47L740.132 335.64C735.449 350.634 728.833 364.954 720.452 378.24C715.656 385.876 709.564 392.617 702.452 398.16C697.409 402.052 691.407 404.509 685.082 405.27C681.081 405.639 677.047 405.18 673.232 403.92C672.302 403.59 671.372 403.23 670.472 402.84L669.182 402.21L668.192 401.7L665.642 400.38C652.142 393.39 639.212 385.74 626.462 377.85C613.712 369.96 601.412 361.65 589.172 352.71L609.932 324.24Z" fill="#FFC3BD"/>
<path d="M666.212 352.019L637.742 397.649L631.742 394.649L626.852 392.31L623.072 390.509L618.182 388.169C610.982 384.779 602.132 380.699 592.232 376.169C575.522 368.669 561.062 339 583.592 323.04C595.352 314.73 626.732 329.399 647.282 340.679C648.932 341.609 650.492 342.479 651.962 343.349C653.432 344.219 654.422 344.759 655.562 345.419C657.302 346.409 658.862 347.339 660.212 348.179C663.962 350.549 666.212 352.019 666.212 352.019Z" fill="#FFB573"/>
<path d="M651.901 343.441L623.011 390.661L618.121 388.321L647.221 340.891C648.871 341.701 650.431 342.661 651.901 343.441Z" fill="white"/>
<path d="M660.151 348.272L631.681 394.682L626.791 392.342L655.501 345.662C657.241 346.502 658.801 347.432 660.151 348.272Z" fill="white"/>
<path d="M723.753 335.193L723.123 310.503L747.993 320.703C747.834 324.165 746.95 327.556 745.4 330.656C743.85 333.756 741.667 336.498 738.993 338.703L723.753 335.193Z" fill="#FFC3BD"/>
<path d="M727.143 292.979L747.453 303.359L747.993 320.699L723.123 310.499L727.143 292.979Z" fill="#FFC3BD"/>
<path opacity="0.2" d="M734.701 969.512L739.141 996.992L716.821 1003.29L712.381 975.812L734.701 969.512Z" fill="black"/>
<path opacity="0.2" d="M539.041 1007.07H562.231L559.231 1034.73H536.041L539.041 1007.07Z" fill="black"/>
<path d="M470.791 343.771C480.356 367.858 488.108 392.627 493.981 417.871C498.151 435.451 501.391 452.341 503.941 467.701C509.941 503.701 512.251 531.361 514.381 540.601L636.271 518.191C615.871 337.171 598.681 321.421 598.681 321.421C588.757 320.706 578.799 320.596 568.861 321.091C566.761 321.091 564.661 321.361 562.501 321.571C545.052 323.736 527.743 326.911 510.661 331.081C507.421 331.861 504.151 332.701 500.971 333.601C484.831 338.131 470.791 343.771 470.791 343.771Z" fill="#FFB573"/>
<path d="M527.283 368.639L556.833 364.199L559.323 376.199L539.313 379.199L539.913 387.599C541.054 386.64 542.314 385.833 543.663 385.199C544.883 384.601 546.189 384.197 547.533 383.999C549.655 383.621 551.835 383.723 553.912 384.3C555.989 384.876 557.91 385.911 559.533 387.329C563.115 390.414 565.494 394.663 566.253 399.329C567.003 402.799 567.003 406.389 566.253 409.859C565.63 413.067 564.026 416.002 561.663 418.259C558.952 420.568 555.605 422.001 552.063 422.369C549.479 422.77 546.848 422.77 544.263 422.369C542.128 422.03 540.085 421.254 538.263 420.089C536.537 418.99 535.007 417.611 533.733 416.009C532.298 414.16 531.09 412.145 530.133 410.009L542.373 406.409C542.935 408.454 544.07 410.297 545.643 411.719C546.239 412.245 546.942 412.636 547.703 412.864C548.465 413.091 549.266 413.151 550.053 413.039C550.899 412.925 551.698 412.587 552.368 412.059C553.038 411.532 553.554 410.834 553.863 410.039C554.502 407.57 554.563 404.986 554.043 402.489C553.523 399.992 552.435 397.648 550.863 395.639C550.213 394.998 549.42 394.519 548.549 394.243C547.678 393.966 546.755 393.9 545.853 394.049C544.621 394.236 543.479 394.803 542.583 395.669C541.665 396.603 540.932 397.702 540.423 398.909L529.443 398.639L527.283 368.639Z" fill="white"/>
<path d="M594.453 404.489L571.773 407.909L569.223 395.369L585.183 358.979L596.013 357.359L603.003 391.049L608.643 390.209L611.043 402.029L605.403 402.869L607.503 413.099L596.643 414.749L594.453 404.489ZM592.053 392.669L588.513 375.419L580.053 394.469L592.053 392.669Z" fill="white"/>
<path opacity="0.2" d="M505.562 373.41C507.913 392.236 504.712 411.339 496.352 428.37C495.602 424.89 494.822 421.41 493.982 417.87C490.982 404.64 487.142 391.02 482.762 377.31L505.562 373.41Z" fill="black"/>
<path d="M505.082 271.8C511.412 287.85 520.292 317.82 510.662 331.08C516.787 335.488 523.785 338.532 531.185 340.006C538.585 341.481 546.216 341.353 553.562 339.63C567.842 336.63 566.702 326.52 562.562 321.63C543.152 320.61 541.082 306.63 541.952 293.16L505.082 271.8Z" fill="#FFC3BD"/>
<path opacity="0.2" d="M520.082 280.499L541.862 293.099C541.591 296.253 541.591 299.425 541.862 302.579C534.572 302.849 523.382 296.849 521.252 289.559C520.312 286.636 519.915 283.565 520.082 280.499Z" fill="black"/>
<path d="M544.531 207.842C529.291 204.602 523.861 217.652 530.371 229.832C536.881 242.012 551.701 248.162 551.701 248.162C551.701 248.162 574.261 214.172 544.531 207.842Z" fill="#263238"/>
<path d="M493.023 245.49C499.263 267.63 501.813 280.89 515.643 289.95C536.463 303.54 561.903 287.25 562.383 263.7C562.803 242.49 552.513 209.88 528.603 205.71C523.337 204.767 517.918 205.187 512.86 206.931C507.803 208.674 503.276 211.682 499.71 215.669C496.143 219.657 493.657 224.49 492.486 229.71C491.316 234.929 491.5 240.362 493.023 245.49Z" fill="#FFC3BD"/>
<path d="M493.114 221.913C477.844 218.673 472.444 231.723 478.924 243.903C485.404 256.083 500.284 262.233 500.284 262.233C500.284 262.233 522.814 228.243 493.114 221.913Z" fill="#263238"/>
<path d="M486.873 230.009C472.833 225.629 495.303 197.819 506.853 188.249C504.873 192.659 505.533 235.829 486.873 230.009Z" fill="#263238"/>
<path d="M498.512 216.389C486.272 203.639 526.082 187.379 543.782 183.989C539.162 187.469 514.802 233.339 498.512 216.389Z" fill="#263238"/>
<path d="M520.591 208.173C513.571 194.853 549.931 190.893 565.201 192.243C560.611 194.043 529.951 225.843 520.591 208.173Z" fill="#263238"/>
<path d="M528.723 210.123C525.723 196.533 559.113 201.693 572.433 206.583C567.903 207.063 532.863 228.183 528.723 210.123Z" fill="#263238"/>
<path d="M487.261 220.979C484.261 214.979 473.641 226.979 470.221 232.619C472.021 231.449 491.101 228.809 487.261 220.979Z" fill="#263238"/>
<path d="M482.072 227.038C475.592 222.478 471.122 241.168 470.822 249.178C472.052 246.928 490.622 233.068 482.072 227.038Z" fill="#263238"/>
<path d="M478.141 238.141C471.421 238.141 477.301 253.321 481.141 259.141C480.751 256.891 487.051 238.231 478.141 238.141Z" fill="#263238"/>
<path d="M482.701 246.811C477.031 249.391 487.921 259.861 493.261 263.281C492.211 261.661 490.231 243.391 482.701 246.811Z" fill="#263238"/>
<path d="M556.471 213.151C543.391 218.071 498.811 247.501 486.511 226.591C474.211 205.681 529.381 207.481 529.381 207.481L556.471 213.151Z" fill="#263238"/>
<path d="M541.142 267.96C538.524 268.576 535.796 268.558 533.186 267.905C530.577 267.253 528.162 265.986 526.142 264.21C526.041 264.099 525.984 263.954 525.984 263.804C525.984 263.655 526.041 263.51 526.142 263.4C526.195 263.341 526.26 263.295 526.332 263.263C526.405 263.231 526.483 263.215 526.562 263.215C526.641 263.215 526.719 263.231 526.791 263.263C526.863 263.295 526.928 263.341 526.982 263.4C528.892 265.016 531.153 266.164 533.586 266.752C536.018 267.341 538.554 267.354 540.992 266.79C541.147 266.763 541.306 266.799 541.435 266.888C541.564 266.978 541.652 267.115 541.682 267.269C541.699 267.351 541.699 267.436 541.68 267.517C541.661 267.599 541.625 267.675 541.573 267.741C541.522 267.807 541.457 267.861 541.382 267.898C541.307 267.936 541.225 267.957 541.142 267.96Z" fill="#263238"/>
<path d="M538.231 273.659C535.568 273.191 533.056 272.091 530.906 270.452C528.755 268.813 527.029 266.682 525.871 264.239C525.829 264.164 525.804 264.08 525.797 263.994C525.79 263.908 525.802 263.822 525.831 263.741C525.861 263.659 525.907 263.586 525.968 263.524C526.029 263.463 526.102 263.415 526.183 263.385C526.263 263.354 526.35 263.341 526.436 263.347C526.522 263.353 526.606 263.378 526.681 263.419C526.757 263.46 526.823 263.517 526.875 263.586C526.927 263.655 526.963 263.735 526.981 263.819C528.082 266.067 529.695 268.026 531.691 269.537C533.686 271.048 536.009 272.069 538.471 272.519C538.62 272.555 538.75 272.646 538.833 272.775C538.917 272.903 538.949 273.058 538.921 273.209C538.885 273.358 538.794 273.487 538.666 273.571C538.537 273.655 538.382 273.686 538.231 273.659Z" fill="#263238"/>
<path d="M488.251 272.433C492.312 276.547 497.83 278.896 503.611 278.973C511.291 278.973 513.091 271.623 509.251 265.473C505.801 259.923 497.641 253.203 490.771 256.173C483.901 259.143 483.331 267.333 488.251 272.433Z" fill="#FFC3BD"/>
<path d="M746.041 989.491L708.271 1000.11C708.271 1000.11 672.271 871.441 649.891 791.701C643.891 770.551 634.891 740.701 623.971 709.231C610.261 669.451 593.821 626.611 580.561 593.101C566.581 557.821 556.141 532.921 556.141 532.921L636.301 518.191C636.301 518.191 701.101 702.601 715.021 771.931C729.541 844.051 746.041 989.491 746.041 989.491Z" fill="#263238"/>
<path opacity="0.2" d="M624.004 709.23C610.294 669.45 593.854 626.61 580.594 593.1L586.954 574.11C609.634 595.65 623.344 668.76 624.004 709.23Z" fill="black"/>
<path d="M593.072 526.14C593.072 526.14 606.602 724.89 605.762 792.78C604.862 867.15 570.002 1029.36 570.002 1029.36H527.492C527.492 1029.36 540.782 885 542.072 812.07C543.512 729.48 514.412 540.6 514.412 540.6L593.072 526.14Z" fill="#263238"/>
<path d="M575.041 1030.29H525.031V1015.35L580.921 1014.39L575.041 1030.29Z" fill="white"/>
<path d="M748.681 989.7L706.021 1001.73L699.781 987.03L748.411 973.26L748.681 989.7Z" fill="white"/>
<path d="M528.391 244.351C528.781 246.181 530.071 247.351 531.391 247.351C532.711 247.351 533.251 245.401 532.831 243.571C532.411 241.741 531.151 240.571 529.831 240.721C528.511 240.871 528.001 242.521 528.391 244.351Z" fill="#263238"/>
<path d="M549 239.88C549.42 241.68 550.71 242.88 552 242.7C553.29 242.52 553.86 240.75 553.44 238.92C553.02 237.09 551.76 235.92 550.44 236.1C549.12 236.28 548.64 238.05 549 239.88Z" fill="#263238"/>
<path d="M542.67 242.19C546.023 247.298 550.06 251.921 554.67 255.93C552.09 259.65 545.97 258.93 545.97 258.93L542.67 242.19Z" fill="#ED847E"/>
<path d="M520.531 239.073C520.735 239.069 520.932 239.007 521.102 238.896C521.272 238.784 521.407 238.627 521.491 238.443C522.028 237.189 522.85 236.078 523.891 235.197C524.933 234.317 526.166 233.692 527.491 233.373C527.782 233.328 528.042 233.171 528.217 232.935C528.391 232.698 528.464 232.403 528.421 232.113C528.403 231.97 528.356 231.833 528.284 231.709C528.212 231.585 528.116 231.476 528.002 231.389C527.887 231.303 527.757 231.24 527.617 231.204C527.478 231.169 527.333 231.162 527.191 231.183C525.486 231.543 523.891 232.306 522.54 233.407C521.188 234.508 520.119 235.915 519.421 237.513C519.297 237.776 519.28 238.077 519.376 238.352C519.471 238.627 519.671 238.853 519.931 238.983C520.119 239.069 520.327 239.101 520.531 239.073Z" fill="#263238"/>
<path d="M556.353 230.82C556.581 230.824 556.804 230.75 556.983 230.61C557.097 230.519 557.193 230.407 557.264 230.279C557.335 230.152 557.38 230.012 557.396 229.867C557.413 229.722 557.401 229.575 557.361 229.435C557.321 229.295 557.254 229.164 557.163 229.05C556.123 227.655 554.762 226.531 553.195 225.774C551.628 225.017 549.902 224.648 548.163 224.7C548.018 224.711 547.877 224.751 547.748 224.818C547.619 224.885 547.505 224.977 547.413 225.089C547.321 225.201 547.252 225.331 547.21 225.47C547.169 225.609 547.156 225.755 547.173 225.9C547.211 226.186 547.355 226.447 547.578 226.631C547.801 226.815 548.085 226.907 548.373 226.89C549.752 226.867 551.116 227.174 552.353 227.784C553.589 228.395 554.663 229.291 555.483 230.4C555.58 230.538 555.711 230.649 555.863 230.723C556.016 230.796 556.184 230.83 556.353 230.82Z" fill="#263238"/>
<path d="M566.011 1062.09C567.594 1062.21 569.172 1061.79 570.481 1060.89C570.91 1060.53 571.241 1060.06 571.44 1059.54C571.64 1059.01 571.702 1058.45 571.621 1057.89C571.625 1057.57 571.537 1057.25 571.367 1056.97C571.197 1056.69 570.952 1056.47 570.661 1056.33C568.111 1055.01 560.641 1059.6 559.801 1060.14C559.704 1060.19 559.626 1060.27 559.577 1060.37C559.529 1060.46 559.512 1060.57 559.531 1060.68C559.556 1060.79 559.609 1060.88 559.682 1060.96C559.756 1061.04 559.848 1061.1 559.951 1061.13C561.928 1061.68 563.961 1062 566.011 1062.09ZM569.461 1057.29C569.698 1057.24 569.944 1057.24 570.181 1057.29C570.29 1057.36 570.379 1057.46 570.437 1057.57C570.495 1057.69 570.52 1057.82 570.511 1057.95C570.566 1058.32 570.526 1058.69 570.395 1059.04C570.264 1059.39 570.045 1059.69 569.761 1059.93C567.179 1061.13 564.232 1061.28 561.541 1060.35C563.962 1058.84 566.65 1057.8 569.461 1057.29Z" fill="#FFB573"/>
<path d="M560.072 1061.25C560.16 1061.28 560.254 1061.28 560.342 1061.25C562.742 1059.96 567.392 1054.86 566.882 1052.25C566.8 1051.85 566.583 1051.48 566.266 1051.22C565.95 1050.96 565.553 1050.81 565.142 1050.81C564.723 1050.76 564.299 1050.79 563.895 1050.92C563.492 1051.04 563.12 1051.25 562.802 1051.53C560.102 1053.72 559.562 1060.53 559.532 1060.71C559.528 1060.78 559.539 1060.85 559.564 1060.92C559.59 1060.99 559.629 1061.06 559.679 1061.11C559.73 1061.16 559.791 1061.21 559.858 1061.23C559.926 1061.26 559.999 1061.28 560.072 1061.28V1061.25ZM564.752 1051.86H565.022C565.712 1051.86 565.772 1052.28 565.802 1052.4C566.102 1053.93 563.162 1057.77 560.762 1059.57C560.932 1056.93 561.882 1054.4 563.492 1052.31C563.851 1052.02 564.294 1051.86 564.752 1051.86Z" fill="#FFB573"/>
<path d="M745.473 1022.76C749.283 1022.46 755.913 1021.53 757.743 1018.68C758.022 1018.26 758.193 1017.79 758.24 1017.29C758.287 1016.79 758.209 1016.29 758.013 1015.83C757.925 1015.54 757.762 1015.28 757.541 1015.07C757.32 1014.87 757.048 1014.73 756.753 1014.66C753.753 1013.94 745.923 1020.99 745.083 1021.8C745.021 1021.89 744.988 1022 744.988 1022.11C744.988 1022.23 745.021 1022.34 745.083 1022.43C745.122 1022.51 745.176 1022.58 745.243 1022.64C745.31 1022.69 745.389 1022.73 745.473 1022.76ZM756.423 1015.71H756.573C756.694 1015.72 756.807 1015.78 756.898 1015.86C756.989 1015.94 757.054 1016.04 757.083 1016.16C757.211 1016.46 757.263 1016.79 757.237 1017.12C757.211 1017.45 757.107 1017.77 756.933 1018.05C755.883 1019.64 752.283 1020.9 747.123 1021.47C750.213 1018.8 754.623 1015.53 756.423 1015.71Z" fill="#FFB573"/>
<path d="M745.471 1022.76C745.547 1022.76 745.624 1022.75 745.696 1022.73C745.768 1022.7 745.834 1022.66 745.891 1022.61C748.231 1020.66 752.221 1014.33 751.081 1011.93C750.841 1011.36 750.181 1010.73 748.711 1011C748.169 1011.09 747.651 1011.29 747.191 1011.59C746.732 1011.89 746.34 1012.28 746.041 1012.74C743.851 1015.74 744.931 1022.04 744.991 1022.31C745.015 1022.4 745.06 1022.49 745.122 1022.56C745.184 1022.63 745.263 1022.69 745.351 1022.73L745.471 1022.76ZM749.521 1012.05C749.971 1012.05 750.061 1012.29 750.091 1012.38C750.751 1013.82 748.201 1018.65 745.921 1021.08C745.451 1018.47 745.808 1015.77 746.941 1013.37C747.163 1013.03 747.45 1012.75 747.785 1012.53C748.12 1012.3 748.496 1012.15 748.891 1012.08C749.096 1012.03 749.311 1012.02 749.521 1012.05Z" fill="#FFB573"/>
<path d="M501.212 380.188C498.452 381.688 495.212 383.668 491.942 385.468C488.672 387.268 485.642 389.218 482.552 391.198C476.342 395.128 470.192 399.178 464.282 403.408C452.647 411.447 441.942 420.754 432.362 431.158C431.792 431.788 431.282 432.448 430.712 433.078L429.932 434.038C429.932 434.038 429.932 433.858 429.932 433.768C430.18 433.353 430.266 432.862 430.172 432.388C429.9 434.005 430.119 435.667 430.802 437.158C433.071 443.289 436.094 449.114 439.802 454.498C448.109 466.897 457.124 478.807 466.802 490.168L455.222 503.158C441.805 493.794 429.496 482.934 418.532 470.788C412.412 464.096 407.271 456.572 403.262 448.438C400.501 442.843 399.093 436.677 399.152 430.438C399.289 426.06 400.45 421.776 402.542 417.928C402.812 417.418 403.142 416.908 403.442 416.428L404.282 415.168L405.242 413.788C405.902 412.888 406.532 411.958 407.192 411.088C412.362 404.17 418.102 397.697 424.352 391.738C430.36 385.924 436.7 380.465 443.342 375.388C449.882 370.318 456.602 365.608 463.532 361.198C467.012 359.008 470.492 356.908 474.062 354.838C477.632 352.768 481.082 350.878 485.192 348.838L501.212 380.188Z" fill="#FFC3BD"/>
<path d="M503.82 389.552C494.25 397.562 484.11 405.542 475.71 411.932L471.36 415.262C470.16 416.132 469.02 417.002 467.97 417.812C466.38 419.012 464.97 420.122 463.59 421.052C459.42 424.052 456.87 425.972 456.87 425.972L431.82 373.142C431.82 373.142 433.89 371.102 437.28 368.012L441.48 364.292L444.75 361.532L449.04 358.082C462.54 347.492 480.99 335.642 493.32 338.762C519.39 345.242 527.7 369.482 503.82 389.552Z" fill="#FFB573"/>
<path d="M468.002 417.809C466.412 419.009 465.002 420.119 463.622 421.049L437.312 368.009L441.512 364.289L468.002 417.809Z" fill="white"/>
<path d="M475.712 411.931L471.362 415.261L444.752 361.531L449.042 358.081L475.712 411.931Z" fill="white"/>
<path d="M459.302 487.472L482.792 486.872L471.152 514.082C471.152 514.082 451.022 510.152 451.922 499.232L459.302 487.472Z" fill="#FFC3BD"/>
<path d="M498.422 498.302L487.742 520.322L471.152 514.082L482.822 486.842L498.422 498.302Z" fill="#FFC3BD"/>
<path d="M777.481 236.011C768.983 230.323 760.81 224.163 753.001 217.561C751.908 216.847 750.741 216.253 749.521 215.791C746.23 214.155 742.516 213.565 738.88 214.101C735.244 214.638 731.859 216.274 729.181 218.791L708.181 238.771C704.837 241.82 702.738 245.997 702.29 250.5C701.841 255.003 703.074 259.513 705.751 263.161C707.288 265.113 709.213 266.726 711.404 267.897C713.596 269.069 716.006 269.774 718.483 269.968C720.96 270.163 723.45 269.842 725.797 269.027C728.145 268.212 730.298 266.919 732.121 265.231L739.471 258.271C741.045 256.786 743.011 255.781 745.138 255.377C747.264 254.973 749.462 255.186 751.471 255.991C754.291 257.071 757.261 258.151 760.321 258.991C774.451 263.221 788.881 263.941 793.861 255.451C799.111 246.241 786.901 241.771 777.481 236.011Z" fill="#FFB573"/>
<path d="M824.252 234.93C821.846 233.912 819.216 233.539 816.622 233.85C814.028 234.16 811.56 235.143 809.462 236.7L809.732 236.07C811.172 232.775 811.519 229.105 810.721 225.598C809.923 222.091 808.023 218.932 805.299 216.583C802.575 214.235 799.171 212.821 795.585 212.549C791.998 212.277 788.419 213.16 785.372 215.07L785.582 214.59C787.346 210.513 787.527 205.925 786.088 201.722C784.65 197.519 781.696 194.003 777.803 191.862C773.911 189.721 769.36 189.108 765.04 190.143C760.72 191.178 756.941 193.788 754.442 197.46L771.452 131.46C772.582 127.084 771.927 122.439 769.631 118.545C767.336 114.652 763.588 111.83 759.212 110.7C757.045 110.141 754.789 110.014 752.573 110.326C750.357 110.639 748.225 111.384 746.297 112.521C742.404 114.816 739.582 118.564 738.452 122.94L715.022 213.66C703.292 217.35 694.022 228.66 692.102 250.17C692.102 251.58 691.592 252.84 691.502 254.01C690.302 270.3 697.502 320.55 697.502 320.55L687.752 336.66L779.732 364.26C779.732 364.26 779.372 346.98 781.532 339.84C799.086 322.861 812.937 302.433 822.212 279.84C822.919 278.057 823.402 276.193 823.652 274.29L832.142 254.46C833.657 250.821 833.678 246.732 832.202 243.078C830.725 239.423 827.869 236.496 824.252 234.93Z" fill="#FFB573"/>
<path d="M722.462 319.562L724.712 315.422L720.482 314.102L721.952 309.332L727.142 310.922L730.292 305.102L735.242 306.632L732.002 312.452L735.812 313.622L738.962 307.802L743.882 309.332L740.882 315.152L743.282 315.902L741.812 320.672L738.452 319.622L736.202 323.762L740.432 325.082L738.962 329.852L733.772 328.262L730.772 333.992L725.852 332.462L728.852 326.732L725.012 325.562L722.012 331.292L717.002 329.762L720.002 324.032L717.632 323.312L719.102 318.512L722.462 319.562ZM727.382 321.062L731.192 322.262L733.442 318.122L729.632 316.952L727.382 321.062Z" fill="white"/>
<path d="M763.742 315.418L755.762 341.278L748.622 339.088L753.842 322.138C752.536 322.615 751.191 322.976 749.822 323.218C748.313 323.453 746.788 323.563 745.262 323.548L747.062 317.728C749.268 317.782 751.465 317.426 753.542 316.678C755.205 316.029 756.694 315.002 757.892 313.678L763.742 315.418Z" fill="white"/>
<path d="M776.522 360.872H776.282L692.282 335.701C692.169 335.66 692.066 335.596 691.978 335.513C691.891 335.431 691.82 335.332 691.772 335.222C691.719 335.114 691.691 334.996 691.691 334.877C691.691 334.757 691.719 334.639 691.772 334.531L699.752 321.182V320.312C699.752 319.892 692.672 270.092 693.752 254.312C693.772 253.887 693.832 253.465 693.932 253.052V252.691C694.082 252.001 694.172 251.282 694.262 250.502C695.702 235.502 700.862 224.702 709.262 219.122C711.741 217.47 714.494 216.272 717.392 215.582C717.492 215.555 717.597 215.548 717.7 215.562C717.803 215.576 717.902 215.611 717.992 215.664C718.081 215.717 718.159 215.788 718.221 215.872C718.283 215.955 718.327 216.05 718.352 216.152C718.397 216.358 718.359 216.574 718.247 216.754C718.135 216.933 717.957 217.062 717.752 217.112C715.043 217.758 712.472 218.886 710.162 220.441C702.272 225.751 697.352 236.192 695.972 250.652C695.972 251.492 695.762 252.242 695.612 252.992V253.351C695.583 253.701 695.583 254.052 695.612 254.402C694.442 270.032 701.432 319.622 701.612 320.072L701.762 321.272C701.802 321.429 701.802 321.594 701.762 321.752L694.172 334.472L776.102 359.042C775.942 352.266 776.607 345.496 778.082 338.882L778.292 338.072C778.344 337.951 778.415 337.84 778.502 337.742L779.072 337.142C796.244 320.557 809.798 300.599 818.882 278.521C819.505 276.876 819.937 275.165 820.172 273.422C820.183 273.316 820.215 273.214 820.267 273.121C820.319 273.028 820.389 272.947 820.473 272.883C820.557 272.818 820.654 272.771 820.757 272.745C820.86 272.719 820.967 272.715 821.072 272.732C821.282 272.761 821.472 272.872 821.601 273.041C821.73 273.209 821.788 273.421 821.762 273.632C821.516 275.512 821.043 277.355 820.352 279.122C811.133 301.4 797.394 321.524 780.002 338.222L779.582 338.672L779.372 339.272C777.91 346.101 777.275 353.081 777.482 360.062C777.474 360.184 777.441 360.303 777.384 360.412C777.327 360.52 777.248 360.616 777.152 360.692C777.067 360.767 776.967 360.823 776.858 360.854C776.748 360.885 776.634 360.891 776.522 360.872Z" fill="white"/>
<path d="M717.662 217.081H717.452C717.252 217.025 717.081 216.894 716.975 216.715C716.869 216.536 716.835 216.324 716.882 216.121L740.882 123.631C741.346 121.751 742.185 119.984 743.351 118.437C744.516 116.891 745.982 115.596 747.662 114.631C749.311 113.651 751.138 113.005 753.038 112.733C754.938 112.46 756.873 112.565 758.732 113.041H759.272C762.879 114.163 765.922 116.619 767.779 119.909C769.636 123.199 770.166 127.073 769.262 130.741L747.602 214.741C747.577 214.842 747.533 214.937 747.471 215.021C747.409 215.105 747.331 215.175 747.242 215.228C747.152 215.282 747.053 215.316 746.95 215.33C746.847 215.345 746.742 215.338 746.642 215.311C746.541 215.287 746.445 215.242 746.362 215.18C746.278 215.119 746.207 215.041 746.154 214.951C746.101 214.862 746.067 214.763 746.052 214.66C746.038 214.557 746.045 214.452 746.072 214.351L767.702 130.351C768.514 127.068 768.033 123.599 766.358 120.661C764.682 117.723 761.941 115.543 758.702 114.571H758.192C756.537 114.153 754.817 114.065 753.128 114.312C751.44 114.559 749.817 115.137 748.352 116.011C746.866 116.862 745.568 118.005 744.537 119.371C743.506 120.738 742.762 122.299 742.352 123.961L718.352 216.451C718.316 216.615 718.23 216.763 718.107 216.876C717.983 216.989 717.828 217.06 717.662 217.081Z" fill="white"/>
<path d="M773.701 234.361C773.541 234.352 773.385 234.301 773.252 234.211C764.252 228.001 752.582 218.281 752.462 218.191C751.452 217.512 750.364 216.958 749.222 216.541C749.018 216.456 748.857 216.294 748.771 216.091C748.728 215.992 748.705 215.885 748.705 215.776C748.705 215.668 748.728 215.56 748.771 215.461L755.132 201.091C756.653 197.654 759.374 194.887 762.785 193.309C766.197 191.73 770.066 191.446 773.672 192.511C774.303 192.708 774.924 192.939 775.532 193.201C779.26 194.869 782.18 197.941 783.657 201.75C785.134 205.558 785.05 209.795 783.422 213.541L774.422 233.881C774.306 234.084 774.127 234.242 773.912 234.331L773.701 234.361ZM750.572 215.371C751.564 215.798 752.518 216.31 753.422 216.901C753.602 216.901 764.462 226.171 773.372 232.351L781.951 212.911C782.682 211.247 783.077 209.455 783.113 207.637C783.149 205.82 782.826 204.013 782.162 202.321C781.517 200.625 780.541 199.074 779.289 197.76C778.037 196.447 776.535 195.396 774.872 194.671C774.34 194.415 773.788 194.205 773.221 194.041C769.983 193.089 766.509 193.346 763.446 194.765C760.384 196.183 757.94 198.666 756.572 201.751L750.572 215.371Z" fill="white"/>
<path d="M705.603 263.879C705.482 263.882 705.362 263.856 705.252 263.804C705.143 263.752 705.047 263.675 704.973 263.579C702.195 259.761 700.914 255.056 701.373 250.356C701.832 245.656 703.998 241.288 707.463 238.079L728.613 218.129C731.412 215.501 734.956 213.803 738.758 213.266C742.56 212.729 746.435 213.38 749.853 215.129C751.104 215.612 752.3 216.226 753.423 216.959C753.603 216.959 765.123 226.799 774.153 232.949C775.173 233.639 776.163 234.299 777.153 234.869C777.401 235.057 777.661 235.227 777.933 235.379C779.493 236.339 780.933 237.239 782.673 238.109C788.673 241.499 794.403 244.709 795.663 249.329C795.917 250.449 795.942 251.608 795.736 252.737C795.53 253.867 795.096 254.942 794.463 255.899C790.953 261.899 782.793 264.119 770.883 262.289C767.203 261.743 763.572 260.91 760.023 259.799C757.023 258.959 754.023 257.909 751.023 256.799C749.794 256.3 748.479 256.045 747.153 256.049C746.968 256.013 746.802 255.914 746.683 255.769C746.563 255.624 746.498 255.442 746.498 255.254C746.498 255.066 746.563 254.884 746.683 254.739C746.802 254.594 746.968 254.495 747.153 254.459C748.652 254.468 750.137 254.753 751.533 255.299C754.533 256.499 757.533 257.519 760.323 258.299C763.814 259.348 767.372 260.16 770.973 260.729C778.773 261.929 788.973 261.899 792.933 255.089C793.462 254.318 793.826 253.445 794.001 252.526C794.177 251.607 794.16 250.662 793.953 249.749C792.873 245.759 787.473 242.729 781.743 239.519L776.973 236.759L776.193 236.249C775.203 235.649 774.213 234.989 773.193 234.269C764.193 228.059 752.523 218.339 752.403 218.249C751.387 217.581 750.3 217.028 749.163 216.599C746.021 214.986 742.457 214.386 738.96 214.88C735.463 215.374 732.204 216.939 729.633 219.359L708.633 239.309C705.444 242.233 703.443 246.228 703.011 250.533C702.579 254.838 703.748 259.151 706.293 262.649C706.434 262.8 706.513 262.998 706.513 263.204C706.513 263.411 706.434 263.609 706.293 263.759C706.194 263.83 706.081 263.877 705.961 263.898C705.842 263.918 705.719 263.912 705.603 263.879Z" fill="white"/>
<path d="M753.002 295.74C752.901 295.719 752.806 295.677 752.721 295.619C752.636 295.561 752.564 295.486 752.508 295.4C752.452 295.313 752.414 295.217 752.396 295.115C752.378 295.014 752.38 294.91 752.402 294.81C755.5 281.48 753.374 267.471 746.462 255.66C746.363 255.476 746.339 255.261 746.395 255.06C746.451 254.858 746.582 254.686 746.762 254.58C746.853 254.522 746.955 254.484 747.062 254.468C747.169 254.451 747.278 254.458 747.383 254.486C747.487 254.514 747.584 254.564 747.669 254.631C747.753 254.699 747.822 254.784 747.872 254.88C754.967 267.076 757.115 281.528 753.872 295.26C753.801 295.425 753.677 295.562 753.519 295.649C753.361 295.736 753.179 295.768 753.002 295.74Z" fill="white"/>
<path d="M783.003 269.491C781.599 269.489 780.204 269.277 778.863 268.861C778.299 268.69 777.747 268.48 777.213 268.231C774.236 266.947 771.79 264.681 770.283 261.811C770.187 261.623 770.167 261.406 770.229 261.204C770.29 261.002 770.428 260.833 770.613 260.731C770.805 260.644 771.023 260.633 771.223 260.7C771.423 260.767 771.591 260.906 771.693 261.091C773.003 263.598 775.116 265.594 777.693 266.761C778.174 266.998 778.676 267.189 779.193 267.331C782.192 268.234 785.418 268.01 788.264 266.701C791.109 265.391 793.378 263.087 794.643 260.221L806.043 234.451C807.407 231.33 807.482 227.797 806.251 224.622C805.02 221.447 802.584 218.887 799.473 217.501C798.977 217.275 798.466 217.084 797.943 216.931C794.944 216.044 791.725 216.28 788.887 217.594C786.049 218.908 783.787 221.21 782.523 224.071L777.333 235.831C777.242 236.019 777.082 236.164 776.886 236.237C776.691 236.309 776.475 236.304 776.283 236.221C776.185 236.182 776.095 236.123 776.021 236.048C775.946 235.973 775.887 235.884 775.848 235.786C775.808 235.688 775.789 235.583 775.792 235.477C775.795 235.371 775.819 235.267 775.863 235.171L781.053 223.411C782.492 220.202 785.043 217.623 788.237 216.15C791.43 214.678 795.049 214.412 798.423 215.401C799.003 215.581 799.573 215.791 800.133 216.031C803.624 217.594 806.358 220.471 807.74 224.038C809.122 227.605 809.04 231.574 807.513 235.081L796.113 260.881C794.981 263.421 793.145 265.582 790.821 267.108C788.497 268.635 785.783 269.462 783.003 269.491Z" fill="white"/>
<path d="M808.562 284.282C807.343 284.279 806.13 284.097 804.963 283.742L803.613 283.262C802.094 282.615 800.717 281.674 799.563 280.494C798.408 279.313 797.498 277.916 796.885 276.383C796.272 274.85 795.968 273.211 795.989 271.56C796.011 269.909 796.359 268.279 797.013 266.762L806.823 243.752C808.035 240.914 810.248 238.621 813.042 237.31C815.836 235.999 819.015 235.761 821.973 236.642C822.432 236.786 822.883 236.956 823.323 237.152C824.838 237.8 826.211 238.74 827.363 239.918C828.515 241.096 829.423 242.49 830.036 244.02C830.649 245.549 830.954 247.185 830.935 248.832C830.915 250.48 830.572 252.108 829.923 253.622L820.113 276.662C819.144 278.923 817.533 280.85 815.48 282.205C813.427 283.559 811.022 284.282 808.562 284.282ZM818.373 237.662C816.224 237.661 814.123 238.292 812.331 239.476C810.539 240.661 809.134 242.346 808.293 244.322L798.483 267.332C797.926 268.663 797.64 270.09 797.64 271.532C797.64 272.974 797.926 274.402 798.483 275.732C799.039 277.078 799.855 278.301 800.885 279.33C801.914 280.36 803.137 281.176 804.483 281.732L805.652 282.152C808.235 282.928 811.014 282.724 813.455 281.578C815.897 280.432 817.829 278.425 818.883 275.942L828.723 252.932C829.853 250.258 829.879 247.245 828.794 244.552C827.709 241.859 825.601 239.706 822.933 238.562C822.553 238.386 822.162 238.236 821.763 238.112C820.662 237.793 819.519 237.642 818.373 237.662Z" fill="white"/>
<path d="M940.321 213.928C931.921 212.098 906.871 226.888 913.681 243.448C920.491 260.008 925.411 272.038 898.471 286.138C871.531 300.238 875.431 330.568 896.731 331.468C918.031 332.368 957.691 309.448 974.941 333.988C992.191 358.528 1075.68 339.658 1084.41 315.148C1093.14 290.638 1082.04 279.928 1066.65 258.448C1051.26 236.968 1091.64 210.988 1062.69 204.448C1033.74 197.908 1045.59 175.108 1018.41 164.968C991.231 154.828 934.381 168.178 940.321 213.928Z" fill="#263238"/>
<path d="M1059 323.007C1065.33 323.667 1072.47 324.267 1079.28 324.537C1086.09 324.807 1093.05 325.077 1099.92 325.017C1113.58 325.002 1127.21 324 1140.72 322.017L1144.98 321.357C1145.19 321.357 1144.98 321.357 1144.98 321.657C1144.98 321.957 1145.94 320.847 1146.33 318.507C1147.06 312.51 1146.83 306.435 1145.67 300.507C1144.61 293.758 1143.16 287.077 1141.32 280.497C1139.55 273.807 1137.48 266.997 1135.32 260.457L1146.63 255.267C1154.06 268.239 1159.98 282.019 1164.27 296.337C1166.73 304.335 1167.74 312.705 1167.27 321.057C1167.05 323.728 1166.48 326.359 1165.59 328.887C1164.51 332.057 1162.74 334.947 1160.4 337.347C1157.83 339.962 1154.64 341.891 1151.13 342.957C1149.21 343.527 1148.64 343.587 1147.65 343.827L1144.89 344.457C1130.22 347.658 1115.29 349.476 1100.28 349.887C1092.84 350.067 1085.28 350.187 1077.99 349.887C1074.27 349.707 1070.55 349.497 1066.83 349.197C1063.11 348.897 1059.51 348.507 1055.43 347.937L1059 323.007Z" fill="#FFC3BD"/>
<path d="M1080.54 323.55L1073.61 367.2C1073.61 367.2 1071.54 366.93 1068.3 366.42L1064.22 365.67C1052.22 363.33 1032.12 358.29 1028.37 349.71C1022.7 336.78 1024.32 329.82 1035.24 319.17C1040.31 314.25 1059.24 318 1071.06 320.97L1075.08 321.99L1080.54 323.55Z" fill="#FFB573"/>
<path d="M1071 320.967L1064.16 365.667L1068.24 366.417L1075.02 321.987L1071 320.967Z" fill="white"/>
<path d="M1136.01 264.837L1116 245.247L1140.75 241.857C1140.75 241.857 1150.17 254.517 1145.82 263.757L1136.01 264.837Z" fill="#FFC3BD"/>
<path d="M1110.84 227.76L1130.91 221.82L1140.87 241.86L1116.12 245.25L1110.84 227.76Z" fill="#FFC3BD"/>
<path d="M916.41 947.548L934.47 964.168L974.19 923.428L956.1 906.808L916.41 947.548Z" fill="#FFC3BD"/>
<path d="M788.729 762.658L791.428 787.078L848.849 788.668L846.148 764.278L788.729 762.658Z" fill="#FFC3BD"/>
<path d="M796.47 789.209L797.55 761.639C797.579 761.159 797.429 760.685 797.13 760.309C796.831 759.932 796.404 759.679 795.93 759.599L774.24 755.639C773.691 755.559 773.132 755.594 772.598 755.744C772.064 755.893 771.568 756.153 771.141 756.507C770.714 756.86 770.366 757.299 770.119 757.796C769.873 758.292 769.733 758.835 769.71 759.389C769.53 769.019 769.92 773.669 769.44 785.789C769.14 793.259 767.97 804.119 767.55 814.439C767.13 824.759 777.33 825.659 778.41 821.429C783.3 802.349 789.12 799.529 794.82 793.259C795.822 792.141 796.406 790.709 796.47 789.209Z" fill="#263238"/>
<path d="M937.021 962.667L916.711 943.976C916.358 943.656 915.898 943.479 915.421 943.479C914.944 943.479 914.485 943.656 914.131 943.976L897.031 957.896C896.604 958.271 896.262 958.732 896.028 959.25C895.793 959.767 895.672 960.328 895.672 960.896C895.672 961.464 895.793 962.026 896.028 962.543C896.262 963.061 896.604 963.522 897.031 963.896C904.231 970.286 908.041 972.896 916.951 981.206C922.441 986.276 937.711 1001.37 945.301 1008.21C952.891 1015.05 960.301 1008.06 957.661 1004.49C946.291 988.406 940.171 974.996 939.091 966.596C938.886 965.084 938.153 963.692 937.021 962.667Z" fill="#263238"/>
<g opacity="0.2">
<path d="M974.189 923.426L953.699 944.456L935.639 927.806L956.099 906.806L974.189 923.426Z" fill="black"/>
<path d="M846.119 764.248L848.819 788.668L819.239 787.828L816.539 763.408L846.119 764.248Z" fill="black"/>
</g>
<path d="M1056.27 319.737C1056.27 319.737 1067.76 324.447 1037.13 467.217L937.501 462.237C941.221 421.767 942.511 396.747 927.301 312.567C941.389 310.395 955.616 309.242 969.871 309.117C984.985 308.795 1000.1 309.547 1015.11 311.367C1034.46 314.127 1056.27 319.737 1056.27 319.737Z" fill="#FFB573"/>
<path d="M993.75 382.558C993.348 378.645 994.199 374.706 996.18 371.308C997.1 370.239 998.276 369.42 999.597 368.927C1000.92 368.434 1002.34 368.283 1003.74 368.488C1005.12 368.517 1006.48 368.833 1007.73 369.418C1008.72 369.881 1009.6 370.557 1010.31 371.398C1010.94 372.155 1011.46 372.992 1011.87 373.888C1012.29 374.85 1012.6 375.856 1012.8 376.888C1013.25 379.09 1013.5 381.33 1013.52 383.578C1013.81 387.456 1013.05 391.341 1011.33 394.828C1010.49 396.029 1009.32 396.965 1007.97 397.528C1006.61 398.091 1005.12 398.257 1003.68 398.008C1001.93 397.999 1000.22 397.511 998.73 396.598C997.45 395.687 996.419 394.47 995.73 393.058C995.04 391.681 994.574 390.202 994.35 388.678C993.969 386.66 993.768 384.612 993.75 382.558ZM1000.41 382.948C1000.28 385.477 1000.56 388.011 1001.25 390.448C1001.82 391.798 1002.6 392.518 1003.62 392.578C1003.95 392.601 1004.29 392.544 1004.59 392.414C1004.9 392.284 1005.17 392.083 1005.39 391.828C1005.99 391.075 1006.37 390.173 1006.5 389.218C1006.77 387.331 1006.88 385.424 1006.83 383.518C1006.96 380.93 1006.67 378.338 1005.99 375.838C1005.82 375.29 1005.5 374.8 1005.07 374.428C1004.63 374.056 1004.1 373.817 1003.53 373.738C1002.98 373.718 1002.43 373.893 1001.99 374.233C1001.55 374.573 1001.25 375.056 1001.13 375.598C1000.49 377.993 1000.25 380.475 1000.41 382.948Z" fill="white"/>
<path d="M1016.61 391.8L1023.3 391.2C1023.38 392.057 1023.69 392.876 1024.2 393.57C1024.39 393.799 1024.62 393.987 1024.88 394.121C1025.15 394.255 1025.43 394.333 1025.73 394.35C1026.29 394.358 1026.83 394.188 1027.29 393.864C1027.74 393.54 1028.08 393.08 1028.25 392.55C1028.86 390.607 1029.18 388.586 1029.21 386.55C1028.54 387.383 1027.7 388.067 1026.75 388.56C1025.81 388.995 1024.78 389.171 1023.75 389.07C1022.67 389.011 1021.61 388.711 1020.66 388.192C1019.71 387.673 1018.89 386.948 1018.26 386.07C1016.73 384.067 1015.92 381.601 1015.98 379.08C1015.94 377.307 1016.32 375.549 1017.09 373.95C1017.72 372.551 1018.77 371.379 1020.09 370.59C1021.65 369.831 1023.4 369.509 1025.13 369.66C1027.2 369.702 1029.22 370.326 1030.95 371.46C1032.56 372.707 1033.78 374.395 1034.46 376.32C1035.45 379.058 1035.91 381.96 1035.81 384.87C1036.17 388.786 1035.22 392.71 1033.11 396.03C1032.21 397.163 1031.04 398.049 1029.71 398.605C1028.38 399.161 1026.92 399.369 1025.49 399.21C1023.91 399.184 1022.36 398.827 1020.93 398.16C1019.82 397.576 1018.86 396.732 1018.14 395.7C1017.4 394.5 1016.89 393.18 1016.61 391.8ZM1028.94 379.8C1029.01 378.492 1028.65 377.196 1027.92 376.11C1027.67 375.687 1027.32 375.332 1026.9 375.076C1026.48 374.82 1026.01 374.67 1025.52 374.64C1025.09 374.623 1024.66 374.713 1024.27 374.901C1023.89 375.089 1023.55 375.371 1023.3 375.72C1022.63 376.762 1022.32 377.996 1022.43 379.23C1022.36 380.535 1022.68 381.831 1023.36 382.95C1023.61 383.34 1023.94 383.668 1024.34 383.907C1024.73 384.147 1025.18 384.291 1025.64 384.33C1026.09 384.367 1026.55 384.288 1026.96 384.099C1027.38 383.91 1027.74 383.617 1028.01 383.25C1028.73 382.237 1029.08 381.009 1029 379.77L1028.94 379.8Z" fill="white"/>
<path d="M969.871 309.119C984.986 308.79 1000.11 309.552 1015.11 311.399C1020.51 312.149 1026.12 313.139 1031.37 314.159C1033.23 323.159 1032.18 335.159 1022.37 350.789L1016.76 359.789L1007.19 355.379C1000.08 352.079 964.141 334.739 953.191 315.029L950.371 309.929C956.551 309.419 963.181 309.119 969.871 309.119Z" fill="white"/>
<path d="M976.889 258.386C979.019 273.086 980.549 299.906 969.869 309.116C969.869 309.116 973.109 324.116 1000.17 325.436C1029.9 326.906 1015.17 311.366 1015.17 311.366C999.119 306.686 1000.17 294.656 1003.56 283.496L976.889 258.386Z" fill="#FFC3BD"/>
<path d="M969.871 309.119C984.986 308.79 1000.11 309.552 1015.11 311.399L1018.11 311.819C1021.38 318.839 1021.77 329.429 1012.35 344.429C1012.35 344.429 973.351 326.429 963.961 309.209C966.001 309.149 967.891 309.119 969.871 309.119Z" fill="#FFC3BD"/>
<path opacity="0.2" d="M987.75 268.648L1003.47 283.498C1002.64 286.091 1002.04 288.751 1001.67 291.448C995.52 290.248 987.33 283.018 987 276.448C986.784 273.824 987.038 271.183 987.75 268.648Z" fill="black"/>
<path d="M959.731 234.239C965.731 257.849 967.921 267.959 982.351 277.889C1004.07 292.889 1031.73 280.139 1032.81 255.209C1033.77 232.739 1023.63 197.909 998.401 192.959C992.845 191.836 987.095 192.152 981.696 193.877C976.297 195.602 971.429 198.679 967.554 202.815C963.679 206.951 960.926 212.01 959.557 217.51C958.188 223.01 958.247 228.769 959.731 234.239Z" fill="#FFC3BD"/>
<path d="M1037.13 467.216C1037.13 467.216 1069.05 654.866 1074 729.656C1080.69 833.936 961.529 943.826 961.529 943.826L937.109 921.356C937.109 921.356 1018.38 813.896 1013.1 737.486C1007.31 654.236 964.319 463.586 964.319 463.586L1037.13 467.216Z" fill="#263238"/>
<path d="M934.02 920.249L962.7 946.619L973.23 939.419L942.15 908.759L934.02 920.249Z" fill="white"/>
<path opacity="0.2" d="M1001.67 518.247C989.1 500.247 981.39 505.497 976.68 521.637C985.86 565.497 998.01 626.637 1005.81 678.027C1016.79 637.947 1031.79 561.237 1001.67 518.247Z" fill="black"/>
<path d="M1010.82 465.9C1010.82 465.9 1005 664.32 990 727.98C972 803.55 825.57 793.11 825.57 793.11L822 759.809C822 759.809 916.44 746.94 930.69 706.98C961.14 621.69 908.52 515.85 937.65 462.24L1010.82 465.9Z" fill="#263238"/>
<path d="M819.691 756.178L824.251 797.488L837.721 800.458L834.541 751.618L819.691 756.178Z" fill="white"/>
<path d="M999 233.19C999.36 235.14 1000.71 236.52 1002 236.19C1003.29 235.86 1004.01 234.15 1003.62 232.2C1003.23 230.25 1001.91 228.9 1000.62 229.2C999.33 229.5 998.67 231.24 999 233.19Z" fill="#263238"/>
<path d="M1021.05 228.929C1021.41 230.879 1022.76 232.259 1024.05 231.929C1025.34 231.599 1026.06 229.919 1025.67 227.969C1025.28 226.019 1023.96 224.639 1022.67 224.969C1021.38 225.299 1020.66 226.979 1021.05 228.929Z" fill="#263238"/>
<path d="M1022.1 225.176L1026.51 222.926C1026.51 222.926 1024.83 227.036 1022.1 225.176Z" fill="#263238"/>
<path d="M1014.93 233.76C1017.53 237.86 1020.68 241.585 1024.29 244.83C1023.43 245.727 1022.39 246.429 1021.23 246.884C1020.08 247.34 1018.84 247.54 1017.6 247.47L1014.93 233.76Z" fill="#ED847E"/>
<path d="M1008.48 257.126C1009.49 257.088 1010.49 256.978 1011.48 256.796C1011.63 256.76 1011.76 256.669 1011.84 256.541C1011.93 256.412 1011.96 256.257 1011.93 256.106C1011.89 255.957 1011.8 255.828 1011.67 255.744C1011.55 255.661 1011.39 255.629 1011.24 255.656C1008.83 256.186 1006.33 256.136 1003.95 255.51C1001.57 254.885 999.366 253.701 997.53 252.056C997.418 251.946 997.267 251.885 997.11 251.885C996.953 251.885 996.803 251.946 996.69 252.056C996.637 252.109 996.594 252.172 996.565 252.242C996.536 252.311 996.521 252.386 996.521 252.461C996.521 252.537 996.536 252.611 996.565 252.681C996.594 252.75 996.637 252.813 996.69 252.866C998.273 254.325 1000.13 255.454 1002.16 256.185C1004.18 256.917 1006.33 257.237 1008.48 257.126Z" fill="#263238"/>
<path d="M1005 261.991C1005.88 262.407 1006.79 262.749 1007.73 263.011C1007.8 263.038 1007.88 263.05 1007.96 263.045C1008.03 263.04 1008.11 263.018 1008.18 262.981C1008.25 262.944 1008.31 262.893 1008.35 262.83C1008.4 262.768 1008.43 262.697 1008.45 262.621C1008.47 262.548 1008.48 262.471 1008.47 262.395C1008.47 262.319 1008.44 262.245 1008.41 262.178C1008.37 262.111 1008.32 262.052 1008.26 262.004C1008.2 261.957 1008.13 261.921 1008.06 261.901C1005.68 261.251 1003.49 260.049 1001.66 258.391C999.839 256.733 998.433 254.666 997.559 252.361C997.511 252.217 997.41 252.096 997.276 252.024C997.142 251.951 996.986 251.932 996.839 251.971C996.688 252.019 996.563 252.125 996.49 252.265C996.416 252.406 996.402 252.57 996.449 252.721C997.194 254.753 998.333 256.617 999.8 258.208C1001.27 259.799 1003.03 261.084 1005 261.991Z" fill="#263238"/>
<path d="M963.749 213.658C976.769 221.968 975.449 265.198 954.749 247.078C934.049 228.958 952.889 206.758 963.749 213.658Z" fill="#263238"/>
<path d="M956.43 225.03C976.23 228.72 1034.19 202.11 1011.18 189.03C988.17 175.95 959.04 194.4 956.43 225.03Z" fill="#263238"/>
<path d="M957.509 257.398C959.988 261.406 963.941 264.282 968.519 265.408C974.519 266.818 977.519 261.298 975.449 255.718C973.709 250.678 968.459 243.718 962.459 244.948C961.152 245.207 959.931 245.789 958.908 246.642C957.884 247.494 957.09 248.589 956.598 249.826C956.106 251.064 955.931 252.405 956.09 253.728C956.249 255.05 956.737 256.312 957.509 257.398Z" fill="#FFC3BD"/>
<path d="M989.371 230.428C989.613 230.417 989.844 230.33 990.033 230.179C990.222 230.028 990.358 229.821 990.421 229.588C991.891 224.398 998.431 222.058 998.491 222.028C998.779 221.926 999.016 221.715 999.151 221.44C999.286 221.165 999.307 220.849 999.211 220.558C999.161 220.412 999.082 220.277 998.979 220.161C998.876 220.046 998.751 219.952 998.611 219.885C998.472 219.818 998.32 219.779 998.166 219.771C998.011 219.763 997.857 219.786 997.711 219.838C997.411 219.838 990.001 222.628 988.201 228.838C988.118 229.136 988.157 229.456 988.308 229.726C988.46 229.995 988.713 230.194 989.011 230.278L989.371 230.428Z" fill="#263238"/>
<path d="M1025.67 217.5C1025.87 217.486 1026.07 217.42 1026.24 217.31C1026.42 217.2 1026.56 217.049 1026.66 216.87C1026.73 216.736 1026.78 216.589 1026.79 216.438C1026.81 216.287 1026.79 216.134 1026.75 215.989C1026.7 215.843 1026.63 215.708 1026.53 215.592C1026.43 215.475 1026.31 215.379 1026.18 215.31C1024.57 214.397 1022.77 213.877 1020.93 213.794C1019.08 213.71 1017.24 214.065 1015.56 214.83C1015.29 214.987 1015.1 215.239 1015.02 215.535C1014.93 215.831 1014.97 216.148 1015.11 216.42C1015.18 216.555 1015.27 216.675 1015.39 216.773C1015.51 216.87 1015.64 216.944 1015.79 216.989C1015.93 217.033 1016.09 217.048 1016.24 217.033C1016.39 217.018 1016.53 216.973 1016.67 216.9C1018 216.297 1019.46 216.024 1020.92 216.102C1022.38 216.181 1023.81 216.608 1025.07 217.35C1025.25 217.459 1025.46 217.511 1025.67 217.5Z" fill="#263238"/>
<path d="M938.762 346.591C935.972 359.011 933.182 371.791 930.542 384.391C927.902 396.991 925.622 409.681 923.762 422.221L923.102 426.931L922.952 428.101C922.952 428.251 922.952 427.921 922.952 427.861C922.952 427.801 922.952 427.591 922.952 427.411C922.842 426.57 922.556 425.763 922.112 425.041C921.795 424.504 921.365 424.043 920.852 423.691C920.642 423.691 920.492 423.691 920.672 423.691C921.337 424.094 922.068 424.379 922.832 424.531C925.402 425.133 928.024 425.495 930.662 425.611C933.662 425.791 936.662 425.851 939.662 425.791C952.022 425.521 965.072 424.291 977.792 422.791L980.792 434.791C967.977 439.334 954.771 442.688 941.342 444.811C933.949 446.075 926.416 446.297 918.962 445.471C916.472 445.117 914.034 444.462 911.702 443.521C910.131 442.884 908.648 442.047 907.292 441.031C905.476 439.686 903.947 437.993 902.792 436.051C901.503 433.906 900.723 431.494 900.512 429.001C900.512 428.401 900.512 427.831 900.512 427.321V425.851V424.561L900.872 419.491C901.982 405.961 903.872 392.701 906.152 379.561C908.432 366.421 911.102 353.491 914.462 340.381L938.762 346.591Z" fill="#FFC3BD"/>
<path d="M941.04 366.959C940.17 368.189 939.3 369.239 938.55 370.199C936.69 372.569 935.55 374.009 935.55 374.009L903.57 348.869C903.57 348.869 904.38 346.889 905.76 343.829C906.27 342.659 906.87 341.369 907.53 339.959C912.36 329.789 920.67 314.249 927.39 312.569C938.97 309.569 949.2 323.759 952.92 337.409C955.11 345.989 946.95 358.949 941.04 366.959Z" fill="#FFB573"/>
<path d="M941.041 366.957C940.171 368.187 939.301 369.237 938.551 370.197L905.551 343.827C906.061 342.657 906.661 341.367 907.321 339.957L941.041 366.957Z" fill="white"/>
<path d="M792.779 801.927L792.959 802.167C793.327 802.586 793.795 802.905 794.32 803.094C794.844 803.283 795.408 803.335 795.959 803.247C796.308 803.226 796.646 803.116 796.94 802.927C797.234 802.738 797.475 802.476 797.639 802.167C799.019 799.347 794.639 791.727 793.979 790.857C793.922 790.758 793.837 790.678 793.734 790.627C793.632 790.577 793.516 790.559 793.403 790.575C793.29 790.591 793.184 790.641 793.099 790.718C793.015 790.795 792.955 790.896 792.929 791.007C792.149 794.037 791.009 799.437 792.779 801.927ZM793.769 792.687C795.479 795.687 797.399 800.157 796.769 801.687C796.704 801.832 796.599 801.954 796.466 802.04C796.332 802.125 796.177 802.169 796.019 802.167C795.648 802.238 795.266 802.211 794.908 802.09C794.551 801.969 794.231 801.758 793.979 801.477C792.779 800.127 792.749 796.917 793.769 792.657V792.687Z" fill="#FFB573"/>
<path d="M793.499 792.178C795.269 794.698 799.679 798.448 802.199 798.178C802.651 798.098 803.062 797.868 803.367 797.525C803.672 797.182 803.852 796.746 803.879 796.288C803.957 795.848 803.935 795.396 803.816 794.965C803.697 794.534 803.482 794.136 803.189 793.798C800.939 791.038 793.889 790.798 793.589 790.798C793.485 790.802 793.383 790.827 793.289 790.874C793.196 790.921 793.114 790.987 793.049 791.068C792.996 791.16 792.969 791.263 792.969 791.368C792.969 791.474 792.996 791.577 793.049 791.668C793.191 791.845 793.341 792.016 793.499 792.178ZM802.499 794.518C802.648 794.724 802.754 794.957 802.811 795.205C802.867 795.452 802.874 795.708 802.829 795.958C802.829 796.708 802.379 796.828 802.079 796.888C800.399 797.158 796.529 794.218 794.759 791.818C797.507 791.858 800.172 792.761 802.379 794.398L802.499 794.518Z" fill="#FFB573"/>
<path d="M940.889 972.057C942.287 973.668 944.211 974.732 946.319 975.057C946.842 975.071 947.359 974.954 947.825 974.719C948.291 974.483 948.691 974.135 948.989 973.707C949.192 973.453 949.329 973.153 949.387 972.833C949.444 972.514 949.421 972.185 949.319 971.877C948.209 968.637 937.619 965.697 936.419 965.367C936.304 965.335 936.182 965.341 936.069 965.383C935.957 965.424 935.861 965.501 935.795 965.6C935.729 965.7 935.695 965.818 935.7 965.937C935.704 966.057 935.746 966.172 935.819 966.267C937.324 968.351 939.022 970.29 940.889 972.057ZM947.549 971.277C947.845 971.514 948.072 971.824 948.209 972.177C948.259 972.298 948.271 972.431 948.244 972.559C948.217 972.688 948.153 972.805 948.059 972.897C947.87 973.184 947.611 973.42 947.307 973.582C947.004 973.745 946.664 973.829 946.319 973.827C944.309 973.827 941.189 971.217 937.799 966.867C941.272 967.784 944.567 969.275 947.549 971.277Z" fill="#FFB573"/>
<path d="M936 966.269H936.21C939.21 967.289 947.1 967.289 948.66 964.949C949.02 964.379 949.23 963.479 948.15 962.249C947.778 961.813 947.319 961.46 946.802 961.212C946.286 960.964 945.723 960.827 945.15 960.809C941.13 960.629 936.15 965.099 936.15 965.279C936.077 965.353 936.023 965.444 935.992 965.543C935.96 965.642 935.953 965.747 935.97 965.849C935.932 965.989 935.942 966.137 936 966.269ZM947.04 962.909C947.134 962.973 947.216 963.055 947.28 963.149C948 963.959 947.76 964.319 947.7 964.439C946.77 965.849 941.04 966.239 937.62 965.549C939.685 963.659 942.283 962.454 945.06 962.099C945.755 962.145 946.413 962.431 946.92 962.909H947.04Z" fill="#FFB573"/>
<path d="M1000.14 229.437L1004.55 227.187C1004.55 227.187 1002.84 231.297 1000.14 229.437Z" fill="#263238"/>
<path d="M936.301 456.297L933.301 465.087C932.911 465.777 933.691 466.527 934.831 466.587L1037.4 471.657C1038.3 471.657 1039.08 471.327 1039.17 470.757L1040.49 461.757C1040.49 461.157 1039.83 460.587 1038.87 460.527L937.981 455.487C937.655 455.468 937.33 455.532 937.036 455.674C936.742 455.816 936.489 456.03 936.301 456.297Z" fill="white"/>
<path d="M949.291 468.269L946.591 468.119C946.051 468.119 945.661 467.819 945.721 467.459L947.551 455.939C947.551 455.609 948.091 455.339 948.631 455.369L951.331 455.519C951.871 455.519 952.261 455.849 952.231 456.179L950.371 467.699C950.311 468.029 949.831 468.299 949.291 468.269Z" fill="#263238"/>
<path d="M1029.78 472.288L1027.05 472.138C1026.54 472.138 1026.12 471.838 1026.18 471.478L1028.04 459.958C1028.04 459.628 1028.58 459.388 1029.12 459.418H1031.82C1032.36 459.418 1032.75 459.748 1032.69 460.078L1030.83 471.598C1030.8 472.048 1030.29 472.318 1029.78 472.288Z" fill="#263238"/>
<path d="M989.519 470.278H986.819C986.279 470.278 985.889 469.978 985.949 469.618L987.809 458.098C987.809 457.768 988.319 457.528 988.859 457.528H991.559C992.099 457.528 992.519 457.858 992.459 458.188L990.6 469.708C990.54 470.038 989.999 470.308 989.519 470.278Z" fill="#263238"/>
<path d="M975.779 423.658L997.619 408.658L995.189 433.528C995.189 433.528 980.699 439.738 972.719 433.528L975.779 423.658Z" fill="#FFC3BD"/>
<path d="M1018.26 409.918L1015.08 430.618L995.191 433.498L997.651 408.658L1018.26 409.918Z" fill="#FFB573"/>
</svg>
