<svg width="28" height="28" viewBox="0 0 28 28" fill="none" xmlns="http://www.w3.org/2000/svg">
<g clip-path="url(#clip0_319_92)">
<path fill-rule="evenodd" clip-rule="evenodd" d="M21 4.66667C21 4.35725 20.8771 4.0605 20.6583 3.84171C20.4395 3.62292 20.1428 3.5 19.8333 3.5C19.5239 3.5 19.2272 3.62292 19.0084 3.84171C18.7896 4.0605 18.6667 4.35725 18.6667 4.66667V5.83333H4.66667C4.35725 5.83333 4.0605 5.95625 3.84171 6.17504C3.62292 6.39383 3.5 6.69058 3.5 7C3.5 7.30942 3.62292 7.60617 3.84171 7.82496C4.0605 8.04375 4.35725 8.16667 4.66667 8.16667H18.6667V9.33333C18.6667 9.64275 18.7896 9.9395 19.0084 10.1583C19.2272 10.3771 19.5239 10.5 19.8333 10.5C20.1428 10.5 20.4395 10.3771 20.6583 10.1583C20.8771 9.9395 21 9.64275 21 9.33333V8.16667H23.3333C23.6428 8.16667 23.9395 8.04375 24.1583 7.82496C24.3771 7.60617 24.5 7.30942 24.5 7C24.5 6.69058 24.3771 6.39383 24.1583 6.17504C23.9395 5.95625 23.6428 5.83333 23.3333 5.83333H21V4.66667ZM4.66667 12.8333C4.35725 12.8333 4.0605 12.9562 3.84171 13.175C3.62292 13.3938 3.5 13.6906 3.5 14C3.5 14.3094 3.62292 14.6062 3.84171 14.825C4.0605 15.0437 4.35725 15.1667 4.66667 15.1667H7V16.3333C7 16.6428 7.12292 16.9395 7.34171 17.1583C7.5605 17.3771 7.85725 17.5 8.16667 17.5C8.47609 17.5 8.77283 17.3771 8.99162 17.1583C9.21042 16.9395 9.33333 16.6428 9.33333 16.3333V15.1667H23.3333C23.6428 15.1667 23.9395 15.0437 24.1583 14.825C24.3771 14.6062 24.5 14.3094 24.5 14C24.5 13.6906 24.3771 13.3938 24.1583 13.175C23.9395 12.9562 23.6428 12.8333 23.3333 12.8333H9.33333V11.6667C9.33333 11.3572 9.21042 11.0605 8.99162 10.8417C8.77283 10.6229 8.47609 10.5 8.16667 10.5C7.85725 10.5 7.5605 10.6229 7.34171 10.8417C7.12292 11.0605 7 11.3572 7 11.6667V12.8333H4.66667ZM3.5 21C3.5 20.6906 3.62292 20.3938 3.84171 20.175C4.0605 19.9562 4.35725 19.8333 4.66667 19.8333H18.6667V18.6667C18.6667 18.3572 18.7896 18.0605 19.0084 17.8417C19.2272 17.6229 19.5239 17.5 19.8333 17.5C20.1428 17.5 20.4395 17.6229 20.6583 17.8417C20.8771 18.0605 21 18.3572 21 18.6667V19.8333H23.3333C23.6428 19.8333 23.9395 19.9562 24.1583 20.175C24.3771 20.3938 24.5 20.6906 24.5 21C24.5 21.3094 24.3771 21.6062 24.1583 21.825C23.9395 22.0438 23.6428 22.1667 23.3333 22.1667H21V23.3333C21 23.6428 20.8771 23.9395 20.6583 24.1583C20.4395 24.3771 20.1428 24.5 19.8333 24.5C19.5239 24.5 19.2272 24.3771 19.0084 24.1583C18.7896 23.9395 18.6667 23.6428 18.6667 23.3333V22.1667H4.66667C4.35725 22.1667 4.0605 22.0438 3.84171 21.825C3.62292 21.6062 3.5 21.3094 3.5 21Z" fill="#E3AB66"/>
</g>
<defs>
<clipPath id="clip0_319_92">
<rect width="28" height="28" fill="white"/>
</clipPath>
</defs>
</svg>
